<svg xmlns="http://www.w3.org/2000/svg" xmlns:xlink="http://www.w3.org/1999/xlink" width="500" zoomAndPan="magnify" viewBox="0 0 375 374.999991" height="500" preserveAspectRatio="xMidYMid meet" version="1.0"><defs><g/><linearGradient x1="0" gradientTransform="matrix(0.75, 0, 0, 0.75, 0.0000045, 0)" y1="0" x2="499.999979" gradientUnits="userSpaceOnUse" y2="0" id="5050e00aaa"><stop stop-opacity="1" stop-color="rgb(0%, 0%, 0%)" offset="0"/><stop stop-opacity="1" stop-color="rgb(0.0808716%, 0.0778198%, 0.312805%)" offset="0.00390625"/><stop stop-opacity="1" stop-color="rgb(0.161743%, 0.15564%, 0.627136%)" offset="0.0078125"/><stop stop-opacity="1" stop-color="rgb(0.242615%, 0.233459%, 0.941467%)" offset="0.0117187"/><stop stop-opacity="1" stop-color="rgb(0.323486%, 0.311279%, 1.255798%)" offset="0.015625"/><stop stop-opacity="1" stop-color="rgb(0.404358%, 0.389099%, 1.568604%)" offset="0.0195312"/><stop stop-opacity="1" stop-color="rgb(0.486755%, 0.468445%, 1.882935%)" offset="0.0234375"/><stop stop-opacity="1" stop-color="rgb(0.567627%, 0.546265%, 2.197266%)" offset="0.0273438"/><stop stop-opacity="1" stop-color="rgb(0.648499%, 0.624084%, 2.511597%)" offset="0.03125"/><stop stop-opacity="1" stop-color="rgb(0.72937%, 0.701904%, 2.825928%)" offset="0.0351562"/><stop stop-opacity="1" stop-color="rgb(0.811768%, 0.779724%, 3.140259%)" offset="0.0390625"/><stop stop-opacity="1" stop-color="rgb(0.892639%, 0.857544%, 3.453064%)" offset="0.0429687"/><stop stop-opacity="1" stop-color="rgb(0.973511%, 0.93689%, 3.767395%)" offset="0.046875"/><stop stop-opacity="1" stop-color="rgb(1.054382%, 1.014709%, 4.081726%)" offset="0.0507812"/><stop stop-opacity="1" stop-color="rgb(1.13678%, 1.092529%, 4.396057%)" offset="0.0546875"/><stop stop-opacity="1" stop-color="rgb(1.217651%, 1.170349%, 4.710388%)" offset="0.0585938"/><stop stop-opacity="1" stop-color="rgb(1.298523%, 1.249695%, 5.024719%)" offset="0.0625"/><stop stop-opacity="1" stop-color="rgb(1.379395%, 1.327515%, 5.337524%)" offset="0.0664062"/><stop stop-opacity="1" stop-color="rgb(1.461792%, 1.405334%, 5.651855%)" offset="0.0703125"/><stop stop-opacity="1" stop-color="rgb(1.542664%, 1.483154%, 5.966187%)" offset="0.0742187"/><stop stop-opacity="1" stop-color="rgb(1.623535%, 1.560974%, 6.280518%)" offset="0.078125"/><stop stop-opacity="1" stop-color="rgb(1.704407%, 1.638794%, 6.594849%)" offset="0.0820312"/><stop stop-opacity="1" stop-color="rgb(1.786804%, 1.71814%, 6.90918%)" offset="0.0859375"/><stop stop-opacity="1" stop-color="rgb(1.867676%, 1.795959%, 7.221985%)" offset="0.0898437"/><stop stop-opacity="1" stop-color="rgb(1.948547%, 1.873779%, 7.536316%)" offset="0.09375"/><stop stop-opacity="1" stop-color="rgb(2.029419%, 1.951599%, 7.850647%)" offset="0.0976562"/><stop stop-opacity="1" stop-color="rgb(2.111816%, 2.030945%, 8.164978%)" offset="0.101562"/><stop stop-opacity="1" stop-color="rgb(2.192688%, 2.108765%, 8.479309%)" offset="0.105469"/><stop stop-opacity="1" stop-color="rgb(2.27356%, 2.186584%, 8.79364%)" offset="0.109375"/><stop stop-opacity="1" stop-color="rgb(2.354431%, 2.264404%, 9.106445%)" offset="0.113281"/><stop stop-opacity="1" stop-color="rgb(2.436829%, 2.342224%, 9.420776%)" offset="0.117188"/><stop stop-opacity="1" stop-color="rgb(2.5177%, 2.420044%, 9.735107%)" offset="0.121094"/><stop stop-opacity="1" stop-color="rgb(2.598572%, 2.49939%, 10.049438%)" offset="0.125"/><stop stop-opacity="1" stop-color="rgb(2.679443%, 2.577209%, 10.36377%)" offset="0.128906"/><stop stop-opacity="1" stop-color="rgb(2.761841%, 2.655029%, 10.678101%)" offset="0.132812"/><stop stop-opacity="1" stop-color="rgb(2.842712%, 2.732849%, 10.990906%)" offset="0.136719"/><stop stop-opacity="1" stop-color="rgb(2.923584%, 2.812195%, 11.305237%)" offset="0.140625"/><stop stop-opacity="1" stop-color="rgb(3.004456%, 2.890015%, 11.619568%)" offset="0.144531"/><stop stop-opacity="1" stop-color="rgb(3.086853%, 2.967834%, 11.933899%)" offset="0.148437"/><stop stop-opacity="1" stop-color="rgb(3.167725%, 3.045654%, 12.246704%)" offset="0.152344"/><stop stop-opacity="1" stop-color="rgb(3.248596%, 3.123474%, 12.561035%)" offset="0.15625"/><stop stop-opacity="1" stop-color="rgb(3.329468%, 3.201294%, 12.875366%)" offset="0.160156"/><stop stop-opacity="1" stop-color="rgb(3.411865%, 3.28064%, 13.189697%)" offset="0.164062"/><stop stop-opacity="1" stop-color="rgb(3.492737%, 3.358459%, 13.504028%)" offset="0.167969"/><stop stop-opacity="1" stop-color="rgb(3.573608%, 3.436279%, 13.818359%)" offset="0.171875"/><stop stop-opacity="1" stop-color="rgb(3.65448%, 3.514099%, 14.131165%)" offset="0.175781"/><stop stop-opacity="1" stop-color="rgb(3.736877%, 3.593445%, 14.445496%)" offset="0.179687"/><stop stop-opacity="1" stop-color="rgb(3.817749%, 3.671265%, 14.759827%)" offset="0.183594"/><stop stop-opacity="1" stop-color="rgb(3.898621%, 3.749084%, 15.074158%)" offset="0.1875"/><stop stop-opacity="1" stop-color="rgb(3.979492%, 3.826904%, 15.388489%)" offset="0.191406"/><stop stop-opacity="1" stop-color="rgb(4.06189%, 3.904724%, 15.70282%)" offset="0.195312"/><stop stop-opacity="1" stop-color="rgb(4.142761%, 3.982544%, 16.015625%)" offset="0.199219"/><stop stop-opacity="1" stop-color="rgb(4.223633%, 4.06189%, 16.329956%)" offset="0.203125"/><stop stop-opacity="1" stop-color="rgb(4.304504%, 4.139709%, 16.644287%)" offset="0.207031"/><stop stop-opacity="1" stop-color="rgb(4.386902%, 4.217529%, 16.958618%)" offset="0.210938"/><stop stop-opacity="1" stop-color="rgb(4.467773%, 4.295349%, 17.272949%)" offset="0.214844"/><stop stop-opacity="1" stop-color="rgb(4.548645%, 4.374695%, 17.58728%)" offset="0.21875"/><stop stop-opacity="1" stop-color="rgb(4.629517%, 4.452515%, 17.900085%)" offset="0.222656"/><stop stop-opacity="1" stop-color="rgb(4.711914%, 4.530334%, 18.214417%)" offset="0.226562"/><stop stop-opacity="1" stop-color="rgb(4.792786%, 4.608154%, 18.528748%)" offset="0.230469"/><stop stop-opacity="1" stop-color="rgb(4.873657%, 4.685974%, 18.843079%)" offset="0.234375"/><stop stop-opacity="1" stop-color="rgb(4.954529%, 4.763794%, 19.15741%)" offset="0.238281"/><stop stop-opacity="1" stop-color="rgb(5.036926%, 4.84314%, 19.471741%)" offset="0.242188"/><stop stop-opacity="1" stop-color="rgb(5.117798%, 4.920959%, 19.784546%)" offset="0.246094"/><stop stop-opacity="1" stop-color="rgb(5.198669%, 4.998779%, 20.098877%)" offset="0.25"/><stop stop-opacity="1" stop-color="rgb(5.279541%, 5.076599%, 20.413208%)" offset="0.253906"/><stop stop-opacity="1" stop-color="rgb(5.361938%, 5.155945%, 20.727539%)" offset="0.257812"/><stop stop-opacity="1" stop-color="rgb(5.44281%, 5.233765%, 21.04187%)" offset="0.261719"/><stop stop-opacity="1" stop-color="rgb(5.523682%, 5.311584%, 21.356201%)" offset="0.265625"/><stop stop-opacity="1" stop-color="rgb(5.604553%, 5.389404%, 21.669006%)" offset="0.269531"/><stop stop-opacity="1" stop-color="rgb(5.686951%, 5.467224%, 21.983337%)" offset="0.273437"/><stop stop-opacity="1" stop-color="rgb(5.767822%, 5.545044%, 22.297668%)" offset="0.277344"/><stop stop-opacity="1" stop-color="rgb(5.848694%, 5.62439%, 22.612%)" offset="0.28125"/><stop stop-opacity="1" stop-color="rgb(5.929565%, 5.702209%, 22.924805%)" offset="0.285156"/><stop stop-opacity="1" stop-color="rgb(6.011963%, 5.780029%, 23.239136%)" offset="0.289062"/><stop stop-opacity="1" stop-color="rgb(6.092834%, 5.857849%, 23.553467%)" offset="0.292969"/><stop stop-opacity="1" stop-color="rgb(6.173706%, 5.937195%, 23.867798%)" offset="0.296875"/><stop stop-opacity="1" stop-color="rgb(6.254578%, 6.015015%, 24.182129%)" offset="0.300781"/><stop stop-opacity="1" stop-color="rgb(6.336975%, 6.092834%, 24.49646%)" offset="0.304687"/><stop stop-opacity="1" stop-color="rgb(6.417847%, 6.170654%, 24.809265%)" offset="0.308594"/><stop stop-opacity="1" stop-color="rgb(6.498718%, 6.248474%, 25.123596%)" offset="0.3125"/><stop stop-opacity="1" stop-color="rgb(6.57959%, 6.326294%, 25.437927%)" offset="0.316406"/><stop stop-opacity="1" stop-color="rgb(6.661987%, 6.40564%, 25.752258%)" offset="0.320312"/><stop stop-opacity="1" stop-color="rgb(6.742859%, 6.483459%, 26.066589%)" offset="0.324219"/><stop stop-opacity="1" stop-color="rgb(6.82373%, 6.561279%, 26.38092%)" offset="0.328125"/><stop stop-opacity="1" stop-color="rgb(6.904602%, 6.639099%, 26.693726%)" offset="0.332031"/><stop stop-opacity="1" stop-color="rgb(6.987%, 6.718445%, 27.008057%)" offset="0.335937"/><stop stop-opacity="1" stop-color="rgb(7.067871%, 6.796265%, 27.322388%)" offset="0.339844"/><stop stop-opacity="1" stop-color="rgb(7.148743%, 6.874084%, 27.636719%)" offset="0.34375"/><stop stop-opacity="1" stop-color="rgb(7.229614%, 6.951904%, 27.95105%)" offset="0.347656"/><stop stop-opacity="1" stop-color="rgb(7.312012%, 7.029724%, 28.265381%)" offset="0.351562"/><stop stop-opacity="1" stop-color="rgb(7.392883%, 7.107544%, 28.578186%)" offset="0.355469"/><stop stop-opacity="1" stop-color="rgb(7.473755%, 7.18689%, 28.892517%)" offset="0.359375"/><stop stop-opacity="1" stop-color="rgb(7.554626%, 7.264709%, 29.206848%)" offset="0.363281"/><stop stop-opacity="1" stop-color="rgb(7.637024%, 7.342529%, 29.521179%)" offset="0.367187"/><stop stop-opacity="1" stop-color="rgb(7.717896%, 7.420349%, 29.83551%)" offset="0.371094"/><stop stop-opacity="1" stop-color="rgb(7.798767%, 7.499695%, 30.149841%)" offset="0.375"/><stop stop-opacity="1" stop-color="rgb(7.879639%, 7.577515%, 30.462646%)" offset="0.378906"/><stop stop-opacity="1" stop-color="rgb(7.962036%, 7.655334%, 30.776978%)" offset="0.382812"/><stop stop-opacity="1" stop-color="rgb(8.042908%, 7.733154%, 31.091309%)" offset="0.386719"/><stop stop-opacity="1" stop-color="rgb(8.123779%, 7.810974%, 31.40564%)" offset="0.390625"/><stop stop-opacity="1" stop-color="rgb(8.204651%, 7.888794%, 31.719971%)" offset="0.394531"/><stop stop-opacity="1" stop-color="rgb(8.287048%, 7.96814%, 32.034302%)" offset="0.398438"/><stop stop-opacity="1" stop-color="rgb(8.36792%, 8.045959%, 32.347107%)" offset="0.402344"/><stop stop-opacity="1" stop-color="rgb(8.448792%, 8.123779%, 32.661438%)" offset="0.40625"/><stop stop-opacity="1" stop-color="rgb(8.529663%, 8.201599%, 32.975769%)" offset="0.410156"/><stop stop-opacity="1" stop-color="rgb(8.612061%, 8.280945%, 33.2901%)" offset="0.414062"/><stop stop-opacity="1" stop-color="rgb(8.692932%, 8.358765%, 33.602905%)" offset="0.417969"/><stop stop-opacity="1" stop-color="rgb(8.773804%, 8.436584%, 33.917236%)" offset="0.421875"/><stop stop-opacity="1" stop-color="rgb(8.854675%, 8.514404%, 34.231567%)" offset="0.425781"/><stop stop-opacity="1" stop-color="rgb(8.937073%, 8.592224%, 34.545898%)" offset="0.429688"/><stop stop-opacity="1" stop-color="rgb(9.017944%, 8.670044%, 34.860229%)" offset="0.433594"/><stop stop-opacity="1" stop-color="rgb(9.098816%, 8.74939%, 35.174561%)" offset="0.4375"/><stop stop-opacity="1" stop-color="rgb(9.179688%, 8.827209%, 35.487366%)" offset="0.441406"/><stop stop-opacity="1" stop-color="rgb(9.262085%, 8.905029%, 35.801697%)" offset="0.445312"/><stop stop-opacity="1" stop-color="rgb(9.342957%, 8.982849%, 36.116028%)" offset="0.449219"/><stop stop-opacity="1" stop-color="rgb(9.423828%, 9.062195%, 36.430359%)" offset="0.453125"/><stop stop-opacity="1" stop-color="rgb(9.5047%, 9.140015%, 36.74469%)" offset="0.457031"/><stop stop-opacity="1" stop-color="rgb(9.587097%, 9.217834%, 37.059021%)" offset="0.460938"/><stop stop-opacity="1" stop-color="rgb(9.667969%, 9.295654%, 37.371826%)" offset="0.464844"/><stop stop-opacity="1" stop-color="rgb(9.74884%, 9.373474%, 37.686157%)" offset="0.46875"/><stop stop-opacity="1" stop-color="rgb(9.829712%, 9.451294%, 38.000488%)" offset="0.472656"/><stop stop-opacity="1" stop-color="rgb(9.912109%, 9.53064%, 38.314819%)" offset="0.476562"/><stop stop-opacity="1" stop-color="rgb(9.992981%, 9.608459%, 38.62915%)" offset="0.480469"/><stop stop-opacity="1" stop-color="rgb(10.073853%, 9.686279%, 38.943481%)" offset="0.484375"/><stop stop-opacity="1" stop-color="rgb(10.154724%, 9.764099%, 39.256287%)" offset="0.488281"/><stop stop-opacity="1" stop-color="rgb(10.237122%, 9.843445%, 39.570618%)" offset="0.492188"/><stop stop-opacity="1" stop-color="rgb(10.317993%, 9.921265%, 39.884949%)" offset="0.496094"/><stop stop-opacity="1" stop-color="rgb(10.398865%, 9.999084%, 40.19928%)" offset="0.5"/><stop stop-opacity="1" stop-color="rgb(10.479736%, 10.076904%, 40.513611%)" offset="0.503906"/><stop stop-opacity="1" stop-color="rgb(10.562134%, 10.154724%, 40.827942%)" offset="0.507812"/><stop stop-opacity="1" stop-color="rgb(10.643005%, 10.232544%, 41.140747%)" offset="0.511719"/><stop stop-opacity="1" stop-color="rgb(10.723877%, 10.31189%, 41.455078%)" offset="0.515625"/><stop stop-opacity="1" stop-color="rgb(10.804749%, 10.389709%, 41.769409%)" offset="0.519531"/><stop stop-opacity="1" stop-color="rgb(10.887146%, 10.467529%, 42.08374%)" offset="0.523437"/><stop stop-opacity="1" stop-color="rgb(10.968018%, 10.545349%, 42.398071%)" offset="0.527344"/><stop stop-opacity="1" stop-color="rgb(11.048889%, 10.624695%, 42.712402%)" offset="0.53125"/><stop stop-opacity="1" stop-color="rgb(11.129761%, 10.702515%, 43.025208%)" offset="0.535156"/><stop stop-opacity="1" stop-color="rgb(11.212158%, 10.780334%, 43.339539%)" offset="0.539062"/><stop stop-opacity="1" stop-color="rgb(11.29303%, 10.858154%, 43.65387%)" offset="0.542969"/><stop stop-opacity="1" stop-color="rgb(11.373901%, 10.935974%, 43.968201%)" offset="0.546875"/><stop stop-opacity="1" stop-color="rgb(11.454773%, 11.013794%, 44.282532%)" offset="0.550781"/><stop stop-opacity="1" stop-color="rgb(11.53717%, 11.09314%, 44.596863%)" offset="0.554687"/><stop stop-opacity="1" stop-color="rgb(11.618042%, 11.170959%, 44.909668%)" offset="0.558594"/><stop stop-opacity="1" stop-color="rgb(11.698914%, 11.248779%, 45.223999%)" offset="0.5625"/><stop stop-opacity="1" stop-color="rgb(11.779785%, 11.326599%, 45.53833%)" offset="0.566406"/><stop stop-opacity="1" stop-color="rgb(11.862183%, 11.405945%, 45.852661%)" offset="0.570312"/><stop stop-opacity="1" stop-color="rgb(11.943054%, 11.483765%, 46.165466%)" offset="0.574219"/><stop stop-opacity="1" stop-color="rgb(12.023926%, 11.561584%, 46.479797%)" offset="0.578125"/><stop stop-opacity="1" stop-color="rgb(12.104797%, 11.639404%, 46.794128%)" offset="0.582031"/><stop stop-opacity="1" stop-color="rgb(12.187195%, 11.717224%, 47.108459%)" offset="0.585937"/><stop stop-opacity="1" stop-color="rgb(12.268066%, 11.795044%, 47.422791%)" offset="0.589844"/><stop stop-opacity="1" stop-color="rgb(12.348938%, 11.87439%, 47.737122%)" offset="0.59375"/><stop stop-opacity="1" stop-color="rgb(12.42981%, 11.952209%, 48.049927%)" offset="0.597656"/><stop stop-opacity="1" stop-color="rgb(12.512207%, 12.030029%, 48.364258%)" offset="0.601562"/><stop stop-opacity="1" stop-color="rgb(12.593079%, 12.107849%, 48.678589%)" offset="0.605469"/><stop stop-opacity="1" stop-color="rgb(12.67395%, 12.187195%, 48.99292%)" offset="0.609375"/><stop stop-opacity="1" stop-color="rgb(12.754822%, 12.265015%, 49.307251%)" offset="0.613281"/><stop stop-opacity="1" stop-color="rgb(12.837219%, 12.342834%, 49.621582%)" offset="0.617187"/><stop stop-opacity="1" stop-color="rgb(12.918091%, 12.420654%, 49.934387%)" offset="0.621094"/><stop stop-opacity="1" stop-color="rgb(12.998962%, 12.498474%, 50.248718%)" offset="0.625"/><stop stop-opacity="1" stop-color="rgb(13.079834%, 12.576294%, 50.563049%)" offset="0.628906"/><stop stop-opacity="1" stop-color="rgb(13.162231%, 12.65564%, 50.87738%)" offset="0.632812"/><stop stop-opacity="1" stop-color="rgb(13.243103%, 12.733459%, 51.191711%)" offset="0.636719"/><stop stop-opacity="1" stop-color="rgb(13.323975%, 12.811279%, 51.506042%)" offset="0.640625"/><stop stop-opacity="1" stop-color="rgb(13.404846%, 12.889099%, 51.818848%)" offset="0.644531"/><stop stop-opacity="1" stop-color="rgb(13.487244%, 12.968445%, 52.133179%)" offset="0.648437"/><stop stop-opacity="1" stop-color="rgb(13.568115%, 13.046265%, 52.44751%)" offset="0.652344"/><stop stop-opacity="1" stop-color="rgb(13.648987%, 13.124084%, 52.761841%)" offset="0.65625"/><stop stop-opacity="1" stop-color="rgb(13.729858%, 13.201904%, 53.076172%)" offset="0.660156"/><stop stop-opacity="1" stop-color="rgb(13.812256%, 13.279724%, 53.390503%)" offset="0.664062"/><stop stop-opacity="1" stop-color="rgb(13.893127%, 13.357544%, 53.703308%)" offset="0.667969"/><stop stop-opacity="1" stop-color="rgb(13.973999%, 13.43689%, 54.017639%)" offset="0.671875"/><stop stop-opacity="1" stop-color="rgb(14.054871%, 13.514709%, 54.33197%)" offset="0.675781"/><stop stop-opacity="1" stop-color="rgb(14.137268%, 13.592529%, 54.646301%)" offset="0.679687"/><stop stop-opacity="1" stop-color="rgb(14.21814%, 13.670349%, 54.960632%)" offset="0.683594"/><stop stop-opacity="1" stop-color="rgb(14.299011%, 13.749695%, 55.274963%)" offset="0.6875"/><stop stop-opacity="1" stop-color="rgb(14.379883%, 13.827515%, 55.587769%)" offset="0.691406"/><stop stop-opacity="1" stop-color="rgb(14.46228%, 13.905334%, 55.9021%)" offset="0.695312"/><stop stop-opacity="1" stop-color="rgb(14.543152%, 13.983154%, 56.216431%)" offset="0.699219"/><stop stop-opacity="1" stop-color="rgb(14.624023%, 14.060974%, 56.530762%)" offset="0.703125"/><stop stop-opacity="1" stop-color="rgb(14.704895%, 14.138794%, 56.843567%)" offset="0.707031"/><stop stop-opacity="1" stop-color="rgb(14.787292%, 14.21814%, 57.157898%)" offset="0.710937"/><stop stop-opacity="1" stop-color="rgb(14.868164%, 14.295959%, 57.472229%)" offset="0.714844"/><stop stop-opacity="1" stop-color="rgb(14.949036%, 14.373779%, 57.78656%)" offset="0.71875"/><stop stop-opacity="1" stop-color="rgb(15.029907%, 14.451599%, 58.100891%)" offset="0.722656"/><stop stop-opacity="1" stop-color="rgb(15.112305%, 14.530945%, 58.415222%)" offset="0.726562"/><stop stop-opacity="1" stop-color="rgb(15.193176%, 14.608765%, 58.728027%)" offset="0.730469"/><stop stop-opacity="1" stop-color="rgb(15.274048%, 14.686584%, 59.042358%)" offset="0.734375"/><stop stop-opacity="1" stop-color="rgb(15.354919%, 14.764404%, 59.356689%)" offset="0.738281"/><stop stop-opacity="1" stop-color="rgb(15.437317%, 14.842224%, 59.671021%)" offset="0.742187"/><stop stop-opacity="1" stop-color="rgb(15.518188%, 14.920044%, 59.985352%)" offset="0.746094"/><stop stop-opacity="1" stop-color="rgb(15.59906%, 14.99939%, 60.299683%)" offset="0.75"/><stop stop-opacity="1" stop-color="rgb(15.679932%, 15.077209%, 60.612488%)" offset="0.753906"/><stop stop-opacity="1" stop-color="rgb(15.762329%, 15.155029%, 60.926819%)" offset="0.757812"/><stop stop-opacity="1" stop-color="rgb(15.843201%, 15.232849%, 61.24115%)" offset="0.761719"/><stop stop-opacity="1" stop-color="rgb(15.924072%, 15.312195%, 61.555481%)" offset="0.765625"/><stop stop-opacity="1" stop-color="rgb(16.004944%, 15.390015%, 61.869812%)" offset="0.769531"/><stop stop-opacity="1" stop-color="rgb(16.087341%, 15.467834%, 62.184143%)" offset="0.773438"/><stop stop-opacity="1" stop-color="rgb(16.168213%, 15.545654%, 62.496948%)" offset="0.777344"/><stop stop-opacity="1" stop-color="rgb(16.249084%, 15.623474%, 62.811279%)" offset="0.78125"/><stop stop-opacity="1" stop-color="rgb(16.329956%, 15.701294%, 63.12561%)" offset="0.785156"/><stop stop-opacity="1" stop-color="rgb(16.412354%, 15.78064%, 63.439941%)" offset="0.789062"/><stop stop-opacity="1" stop-color="rgb(16.493225%, 15.858459%, 63.754272%)" offset="0.792969"/><stop stop-opacity="1" stop-color="rgb(16.574097%, 15.936279%, 64.068604%)" offset="0.796875"/><stop stop-opacity="1" stop-color="rgb(16.654968%, 16.014099%, 64.381409%)" offset="0.800781"/><stop stop-opacity="1" stop-color="rgb(16.737366%, 16.093445%, 64.69574%)" offset="0.804688"/><stop stop-opacity="1" stop-color="rgb(16.818237%, 16.171265%, 65.010071%)" offset="0.808594"/><stop stop-opacity="1" stop-color="rgb(16.899109%, 16.249084%, 65.324402%)" offset="0.8125"/><stop stop-opacity="1" stop-color="rgb(16.97998%, 16.326904%, 65.638733%)" offset="0.816406"/><stop stop-opacity="1" stop-color="rgb(17.062378%, 16.404724%, 65.953064%)" offset="0.820312"/><stop stop-opacity="1" stop-color="rgb(17.14325%, 16.482544%, 66.265869%)" offset="0.824219"/><stop stop-opacity="1" stop-color="rgb(17.224121%, 16.56189%, 66.5802%)" offset="0.828125"/><stop stop-opacity="1" stop-color="rgb(17.304993%, 16.639709%, 66.894531%)" offset="0.832031"/><stop stop-opacity="1" stop-color="rgb(17.38739%, 16.717529%, 67.208862%)" offset="0.835938"/><stop stop-opacity="1" stop-color="rgb(17.468262%, 16.795349%, 67.521667%)" offset="0.839844"/><stop stop-opacity="1" stop-color="rgb(17.549133%, 16.874695%, 67.835999%)" offset="0.84375"/><stop stop-opacity="1" stop-color="rgb(17.630005%, 16.952515%, 68.15033%)" offset="0.847656"/><stop stop-opacity="1" stop-color="rgb(17.712402%, 17.030334%, 68.464661%)" offset="0.851562"/><stop stop-opacity="1" stop-color="rgb(17.793274%, 17.108154%, 68.778992%)" offset="0.855469"/><stop stop-opacity="1" stop-color="rgb(17.874146%, 17.185974%, 69.093323%)" offset="0.859375"/><stop stop-opacity="1" stop-color="rgb(17.955017%, 17.263794%, 69.406128%)" offset="0.863281"/><stop stop-opacity="1" stop-color="rgb(18.037415%, 17.34314%, 69.720459%)" offset="0.867188"/><stop stop-opacity="1" stop-color="rgb(18.118286%, 17.420959%, 70.03479%)" offset="0.871094"/><stop stop-opacity="1" stop-color="rgb(18.199158%, 17.498779%, 70.349121%)" offset="0.875"/><stop stop-opacity="1" stop-color="rgb(18.280029%, 17.576599%, 70.663452%)" offset="0.878906"/><stop stop-opacity="1" stop-color="rgb(18.362427%, 17.655945%, 70.977783%)" offset="0.882812"/><stop stop-opacity="1" stop-color="rgb(18.443298%, 17.733765%, 71.290588%)" offset="0.886719"/><stop stop-opacity="1" stop-color="rgb(18.52417%, 17.811584%, 71.604919%)" offset="0.890625"/><stop stop-opacity="1" stop-color="rgb(18.605042%, 17.889404%, 71.91925%)" offset="0.894531"/><stop stop-opacity="1" stop-color="rgb(18.687439%, 17.967224%, 72.233582%)" offset="0.898438"/><stop stop-opacity="1" stop-color="rgb(18.768311%, 18.045044%, 72.547913%)" offset="0.902344"/><stop stop-opacity="1" stop-color="rgb(18.849182%, 18.12439%, 72.862244%)" offset="0.90625"/><stop stop-opacity="1" stop-color="rgb(18.930054%, 18.202209%, 73.175049%)" offset="0.910156"/><stop stop-opacity="1" stop-color="rgb(19.012451%, 18.280029%, 73.48938%)" offset="0.914062"/><stop stop-opacity="1" stop-color="rgb(19.093323%, 18.357849%, 73.803711%)" offset="0.917969"/><stop stop-opacity="1" stop-color="rgb(19.174194%, 18.437195%, 74.118042%)" offset="0.921875"/><stop stop-opacity="1" stop-color="rgb(19.255066%, 18.515015%, 74.432373%)" offset="0.925781"/><stop stop-opacity="1" stop-color="rgb(19.337463%, 18.592834%, 74.746704%)" offset="0.929688"/><stop stop-opacity="1" stop-color="rgb(19.418335%, 18.670654%, 75.059509%)" offset="0.933594"/><stop stop-opacity="1" stop-color="rgb(19.499207%, 18.748474%, 75.37384%)" offset="0.9375"/><stop stop-opacity="1" stop-color="rgb(19.580078%, 18.826294%, 75.688171%)" offset="0.941406"/><stop stop-opacity="1" stop-color="rgb(19.662476%, 18.90564%, 76.002502%)" offset="0.945312"/><stop stop-opacity="1" stop-color="rgb(19.743347%, 18.983459%, 76.316833%)" offset="0.949219"/><stop stop-opacity="1" stop-color="rgb(19.824219%, 19.061279%, 76.631165%)" offset="0.953125"/><stop stop-opacity="1" stop-color="rgb(19.90509%, 19.139099%, 76.94397%)" offset="0.957031"/><stop stop-opacity="1" stop-color="rgb(19.987488%, 19.218445%, 77.258301%)" offset="0.960938"/><stop stop-opacity="1" stop-color="rgb(20.068359%, 19.296265%, 77.572632%)" offset="0.964844"/><stop stop-opacity="1" stop-color="rgb(20.149231%, 19.374084%, 77.886963%)" offset="0.96875"/><stop stop-opacity="1" stop-color="rgb(20.230103%, 19.451904%, 78.199768%)" offset="0.972656"/><stop stop-opacity="1" stop-color="rgb(20.310974%, 19.529724%, 78.514099%)" offset="0.976562"/><stop stop-opacity="1" stop-color="rgb(20.391846%, 19.607544%, 78.82843%)" offset="0.980469"/><stop stop-opacity="1" stop-color="rgb(20.474243%, 19.68689%, 79.142761%)" offset="0.984375"/><stop stop-opacity="1" stop-color="rgb(20.555115%, 19.764709%, 79.457092%)" offset="0.988281"/><stop stop-opacity="1" stop-color="rgb(20.635986%, 19.842529%, 79.771423%)" offset="0.992188"/><stop stop-opacity="1" stop-color="rgb(20.716858%, 19.920349%, 80.084229%)" offset="0.996094"/><stop stop-opacity="1" stop-color="rgb(20.799255%, 19.999695%, 80.39856%)" offset="1"/></linearGradient><clipPath id="0f1cf2f961"><path d="M 37.5 37.5 L 337.5 37.5 L 337.5 337.5 L 37.5 337.5 Z M 37.5 37.5 " clip-rule="nonzero"/></clipPath><clipPath id="6b678f2ea3"><path d="M 142.898438 99.679688 L 145.148438 99.679688 L 145.148438 101.929688 L 142.898438 101.929688 Z M 142.898438 99.679688 " clip-rule="nonzero"/></clipPath><clipPath id="919e0ece99"><path d="M 143 99.679688 L 145 99.679688 L 145 101.929688 L 143 101.929688 Z M 143 99.679688 " clip-rule="nonzero"/></clipPath><clipPath id="b9c55c426f"><path d="M 229.570312 99.679688 L 231.820312 99.679688 L 231.820312 101.929688 L 229.570312 101.929688 Z M 229.570312 99.679688 " clip-rule="nonzero"/></clipPath></defs><rect x="-37.5" fill="url(#5050e00aaa)" width="450" y="-37.499999" height="449.999989"/><g clip-path="url(#0f1cf2f961)"><path fill="#c3c1bb" d="M 37.5 187.5 C 37.5 104.8125 104.8125 37.5 187.5 37.5 C 270.183594 37.5 337.5 104.8125 337.5 187.5 C 337.5 270.183594 270.183594 337.5 187.5 337.5 C 104.8125 337.5 37.5 270.183594 37.5 187.5 Z M 335.28125 187.5 C 335.28125 105.996094 269 39.714844 187.5 39.714844 C 105.996094 39.714844 39.714844 105.996094 39.714844 187.5 C 39.714844 269 105.996094 335.28125 187.5 335.28125 C 269 335.28125 335.28125 269 335.28125 187.5 Z M 335.28125 187.5 " fill-opacity="1" fill-rule="nonzero"/></g><path stroke-linecap="butt" transform="matrix(0.749658, 0, 0, 0.75, 72.027422, 141.749991)" fill="none" stroke-linejoin="miter" d="M -0.000104608 1.000012 L 308.156178 1.000012 " stroke="#ff3131" stroke-width="2" stroke-opacity="1" stroke-miterlimit="4"/><path stroke-linecap="butt" transform="matrix(0.749658, 0, 0, 0.75, 72.027422, 235.905102)" fill="none" stroke-linejoin="miter" d="M -0.000104608 1.001531 L 308.156178 1.001531 " stroke="#ff3131" stroke-width="2" stroke-opacity="1" stroke-miterlimit="4"/><g fill="#000000" fill-opacity="1"><g transform="translate(161.977962, 103.212495)"><g><path d="M 0.359375 -0.359375 C 0.523438 -0.378906 0.695312 -0.414062 0.875 -0.46875 C 1.0625 -0.519531 1.191406 -0.570312 1.265625 -0.625 L 1.265625 -5.96875 C 1.015625 -6.09375 0.691406 -6.179688 0.296875 -6.234375 L 0.34375 -6.59375 L 4.75 -6.59375 L 4.828125 -5.078125 C 4.742188 -5.046875 4.648438 -5.03125 4.546875 -5.03125 C 4.515625 -5.03125 4.46875 -5.039062 4.40625 -5.0625 C 4.320312 -5.488281 4.179688 -5.820312 3.984375 -6.0625 L 2.140625 -6.0625 L 2.140625 -3.59375 L 3.25 -3.640625 C 3.382812 -3.648438 3.492188 -3.710938 3.578125 -3.828125 C 3.671875 -3.953125 3.742188 -4.113281 3.796875 -4.3125 L 4.125 -4.3125 L 4.125 -2.34375 L 3.796875 -2.34375 C 3.722656 -2.632812 3.648438 -2.828125 3.578125 -2.921875 C 3.503906 -3.023438 3.382812 -3.078125 3.21875 -3.078125 L 2.140625 -3.140625 L 2.140625 -0.578125 L 4.234375 -0.578125 C 4.429688 -0.847656 4.570312 -1.21875 4.65625 -1.6875 C 4.738281 -1.695312 4.800781 -1.703125 4.84375 -1.703125 C 4.875 -1.703125 4.945312 -1.695312 5.0625 -1.6875 L 4.96875 0 L 0.296875 0 Z M 0.359375 -0.359375 "/></g></g></g><g fill="#000000" fill-opacity="1"><g transform="translate(168.49122, 103.212495)"><g><path d="M 2 0.0625 C 1.65625 0.0625 1.304688 0.00390625 0.953125 -0.109375 C 0.597656 -0.222656 0.335938 -0.332031 0.171875 -0.4375 L 0.171875 -2.0625 L 0.65625 -2.109375 C 0.695312 -1.796875 0.742188 -1.53125 0.796875 -1.3125 C 0.847656 -1.09375 0.921875 -0.875 1.015625 -0.65625 C 1.347656 -0.5 1.722656 -0.421875 2.140625 -0.421875 C 2.515625 -0.421875 2.8125 -0.519531 3.03125 -0.71875 C 3.257812 -0.925781 3.375 -1.210938 3.375 -1.578125 C 3.375 -1.835938 3.304688 -2.054688 3.171875 -2.234375 C 3.046875 -2.410156 2.890625 -2.550781 2.703125 -2.65625 C 2.515625 -2.769531 2.265625 -2.890625 1.953125 -3.015625 C 1.597656 -3.171875 1.304688 -3.316406 1.078125 -3.453125 C 0.847656 -3.597656 0.65625 -3.789062 0.5 -4.03125 C 0.34375 -4.269531 0.265625 -4.566406 0.265625 -4.921875 C 0.265625 -5.460938 0.441406 -5.890625 0.796875 -6.203125 C 1.160156 -6.515625 1.660156 -6.671875 2.296875 -6.671875 C 2.628906 -6.671875 2.9375 -6.613281 3.21875 -6.5 C 3.507812 -6.394531 3.738281 -6.242188 3.90625 -6.046875 C 4.070312 -5.859375 4.15625 -5.648438 4.15625 -5.421875 C 4.15625 -5.003906 3.988281 -4.796875 3.65625 -4.796875 C 3.507812 -4.796875 3.394531 -4.816406 3.3125 -4.859375 C 3.226562 -4.898438 3.15625 -4.96875 3.09375 -5.0625 C 3.226562 -5.195312 3.296875 -5.363281 3.296875 -5.5625 C 3.296875 -5.738281 3.207031 -5.882812 3.03125 -6 C 2.851562 -6.113281 2.609375 -6.171875 2.296875 -6.171875 C 1.921875 -6.171875 1.628906 -6.082031 1.421875 -5.90625 C 1.210938 -5.738281 1.109375 -5.492188 1.109375 -5.171875 C 1.109375 -4.929688 1.171875 -4.734375 1.296875 -4.578125 C 1.421875 -4.421875 1.570312 -4.289062 1.75 -4.1875 C 1.925781 -4.082031 2.171875 -3.96875 2.484375 -3.84375 C 2.867188 -3.675781 3.175781 -3.519531 3.40625 -3.375 C 3.644531 -3.226562 3.847656 -3.023438 4.015625 -2.765625 C 4.191406 -2.503906 4.28125 -2.175781 4.28125 -1.78125 C 4.28125 -1.1875 4.070312 -0.726562 3.65625 -0.40625 C 3.238281 -0.09375 2.6875 0.0625 2 0.0625 Z M 2 0.0625 "/></g></g></g><g fill="#000000" fill-opacity="1"><g transform="translate(174.146032, 103.212495)"><g><path d="M 1.421875 -0.359375 C 1.804688 -0.410156 2.109375 -0.5 2.328125 -0.625 L 2.328125 -6.140625 C 1.816406 -6.128906 1.382812 -6.109375 1.03125 -6.078125 C 0.90625 -5.910156 0.8125 -5.71875 0.75 -5.5 C 0.6875 -5.289062 0.65625 -5.097656 0.65625 -4.921875 C 0.601562 -4.921875 0.53125 -4.921875 0.4375 -4.921875 C 0.332031 -4.921875 0.257812 -4.921875 0.21875 -4.921875 L 0.21875 -6.625 C 1.125 -6.601562 1.96875 -6.59375 2.75 -6.59375 C 3.269531 -6.59375 3.769531 -6.59375 4.25 -6.59375 C 4.738281 -6.601562 5.082031 -6.613281 5.28125 -6.625 L 5.28125 -4.921875 C 5.238281 -4.921875 5.171875 -4.921875 5.078125 -4.921875 C 4.972656 -4.921875 4.894531 -4.921875 4.84375 -4.921875 C 4.800781 -5.398438 4.6875 -5.78125 4.5 -6.0625 C 4.0625 -6.101562 3.625 -6.128906 3.1875 -6.140625 L 3.1875 -0.625 C 3.414062 -0.5 3.738281 -0.410156 4.15625 -0.359375 L 4.109375 0 L 1.359375 0 Z M 1.421875 -0.359375 "/></g></g></g><g fill="#000000" fill-opacity="1"><g transform="translate(180.827026, 103.212495)"><g><path d="M 0.359375 -0.359375 C 0.554688 -0.390625 0.722656 -0.421875 0.859375 -0.453125 C 0.992188 -0.484375 1.125 -0.539062 1.25 -0.625 L 1.25 -5.96875 C 1.019531 -6.09375 0.703125 -6.179688 0.296875 -6.234375 L 0.34375 -6.59375 L 2.46875 -6.59375 C 3.625 -6.59375 4.488281 -6.328125 5.0625 -5.796875 C 5.632812 -5.265625 5.921875 -4.425781 5.921875 -3.28125 C 5.921875 -2.132812 5.628906 -1.300781 5.046875 -0.78125 C 4.472656 -0.257812 3.59375 0 2.40625 0 L 0.3125 0 Z M 2.578125 -0.484375 C 3.367188 -0.484375 3.957031 -0.691406 4.34375 -1.109375 C 4.726562 -1.535156 4.921875 -2.265625 4.921875 -3.296875 C 4.921875 -4.316406 4.726562 -5.035156 4.34375 -5.453125 C 3.96875 -5.878906 3.390625 -6.09375 2.609375 -6.09375 L 2.140625 -6.09375 L 2.140625 -0.515625 C 2.242188 -0.492188 2.390625 -0.484375 2.578125 -0.484375 Z M 2.578125 -0.484375 "/></g></g></g><g fill="#000000" fill-opacity="1"><g transform="translate(188.178986, 103.212495)"><g/></g></g><g fill="#000000" fill-opacity="1"><g transform="translate(191.534762, 103.212495)"><g><path d="M 0.234375 -0.328125 C 0.816406 -0.398438 1.257812 -0.5 1.5625 -0.625 L 1.5625 -5.65625 L 0.25 -5.65625 L 0.25 -6.078125 C 0.914062 -6.128906 1.535156 -6.3125 2.109375 -6.625 L 2.4375 -6.484375 L 2.4375 -0.625 C 2.5625 -0.5625 2.75 -0.503906 3 -0.453125 C 3.25 -0.398438 3.472656 -0.359375 3.671875 -0.328125 L 3.640625 0 L 0.203125 0 Z M 0.234375 -0.328125 "/></g></g></g><g fill="#000000" fill-opacity="1"><g transform="translate(196.291673, 103.212495)"><g><path d="M 0.890625 -0.28125 C 1.617188 -0.601562 2.191406 -1.003906 2.609375 -1.484375 C 3.023438 -1.972656 3.285156 -2.59375 3.390625 -3.34375 C 3.015625 -3.082031 2.597656 -2.953125 2.140625 -2.953125 C 1.578125 -2.953125 1.117188 -3.109375 0.765625 -3.421875 C 0.421875 -3.742188 0.25 -4.175781 0.25 -4.71875 C 0.25 -5.3125 0.4375 -5.773438 0.8125 -6.109375 C 1.1875 -6.453125 1.679688 -6.625 2.296875 -6.625 C 3.003906 -6.625 3.53125 -6.414062 3.875 -6 C 4.21875 -5.59375 4.390625 -4.972656 4.390625 -4.140625 C 4.390625 -3.054688 4.085938 -2.15625 3.484375 -1.4375 C 2.890625 -0.71875 2.082031 -0.207031 1.0625 0.09375 Z M 2.21875 -3.4375 C 2.6875 -3.4375 3.097656 -3.617188 3.453125 -3.984375 L 3.453125 -4.125 C 3.453125 -4.71875 3.367188 -5.195312 3.203125 -5.5625 C 3.035156 -5.9375 2.734375 -6.125 2.296875 -6.125 C 1.929688 -6.125 1.648438 -6.003906 1.453125 -5.765625 C 1.253906 -5.523438 1.15625 -5.179688 1.15625 -4.734375 C 1.15625 -4.335938 1.242188 -4.019531 1.421875 -3.78125 C 1.609375 -3.550781 1.875 -3.4375 2.21875 -3.4375 Z M 2.21875 -3.4375 "/></g></g></g><g fill="#000000" fill-opacity="1"><g transform="translate(202.193165, 103.212495)"><g><path d="M 0.890625 -0.28125 C 1.617188 -0.601562 2.191406 -1.003906 2.609375 -1.484375 C 3.023438 -1.972656 3.285156 -2.59375 3.390625 -3.34375 C 3.015625 -3.082031 2.597656 -2.953125 2.140625 -2.953125 C 1.578125 -2.953125 1.117188 -3.109375 0.765625 -3.421875 C 0.421875 -3.742188 0.25 -4.175781 0.25 -4.71875 C 0.25 -5.3125 0.4375 -5.773438 0.8125 -6.109375 C 1.1875 -6.453125 1.679688 -6.625 2.296875 -6.625 C 3.003906 -6.625 3.53125 -6.414062 3.875 -6 C 4.21875 -5.59375 4.390625 -4.972656 4.390625 -4.140625 C 4.390625 -3.054688 4.085938 -2.15625 3.484375 -1.4375 C 2.890625 -0.71875 2.082031 -0.207031 1.0625 0.09375 Z M 2.21875 -3.4375 C 2.6875 -3.4375 3.097656 -3.617188 3.453125 -3.984375 L 3.453125 -4.125 C 3.453125 -4.71875 3.367188 -5.195312 3.203125 -5.5625 C 3.035156 -5.9375 2.734375 -6.125 2.296875 -6.125 C 1.929688 -6.125 1.648438 -6.003906 1.453125 -5.765625 C 1.253906 -5.523438 1.15625 -5.179688 1.15625 -4.734375 C 1.15625 -4.335938 1.242188 -4.019531 1.421875 -3.78125 C 1.609375 -3.550781 1.875 -3.4375 2.21875 -3.4375 Z M 2.21875 -3.4375 "/></g></g></g><g fill="#000000" fill-opacity="1"><g transform="translate(208.094657, 103.212495)"><g><path d="M 2.5625 0.0625 C 1.8125 0.0625 1.238281 -0.222656 0.84375 -0.796875 C 0.445312 -1.378906 0.25 -2.207031 0.25 -3.28125 C 0.25 -4.351562 0.445312 -5.175781 0.84375 -5.75 C 1.238281 -6.332031 1.8125 -6.625 2.5625 -6.625 C 3.300781 -6.625 3.863281 -6.335938 4.25 -5.765625 C 4.644531 -5.191406 4.84375 -4.363281 4.84375 -3.28125 C 4.84375 -2.195312 4.644531 -1.367188 4.25 -0.796875 C 3.863281 -0.222656 3.300781 0.0625 2.5625 0.0625 Z M 2.5625 -0.421875 C 2.894531 -0.421875 3.160156 -0.515625 3.359375 -0.703125 C 3.566406 -0.890625 3.71875 -1.191406 3.8125 -1.609375 C 3.90625 -2.023438 3.953125 -2.582031 3.953125 -3.28125 C 3.953125 -3.96875 3.90625 -4.519531 3.8125 -4.9375 C 3.71875 -5.351562 3.566406 -5.65625 3.359375 -5.84375 C 3.160156 -6.03125 2.894531 -6.125 2.5625 -6.125 C 2.21875 -6.125 1.941406 -6.03125 1.734375 -5.84375 C 1.535156 -5.65625 1.390625 -5.351562 1.296875 -4.9375 C 1.210938 -4.53125 1.171875 -3.976562 1.171875 -3.28125 C 1.171875 -2.582031 1.210938 -2.023438 1.296875 -1.609375 C 1.390625 -1.191406 1.535156 -0.890625 1.734375 -0.703125 C 1.941406 -0.515625 2.21875 -0.421875 2.5625 -0.421875 Z M 2.5625 -0.421875 "/></g></g></g><g clip-path="url(#6b678f2ea3)"><path fill="#635538" d="M 145.144531 100.804688 C 145.144531 101.425781 144.640625 101.929688 144.019531 101.929688 C 143.398438 101.929688 142.894531 101.425781 142.894531 100.804688 C 142.894531 100.183594 143.398438 99.679688 144.019531 99.679688 C 144.640625 99.679688 145.144531 100.183594 145.144531 100.804688 M 145.082031 100.804688 C 145.082031 100.21875 144.605469 99.746094 144.019531 99.746094 C 143.4375 99.746094 142.960938 100.21875 142.960938 100.804688 C 142.960938 101.386719 143.4375 101.863281 144.019531 101.863281 C 144.605469 101.863281 145.082031 101.386719 145.082031 100.804688 Z M 145.082031 100.804688 " fill-opacity="1" fill-rule="nonzero"/></g><g clip-path="url(#919e0ece99)"><path fill="#635538" d="M 144.972656 100.816406 C 144.972656 101.347656 144.542969 101.773438 144.015625 101.773438 C 143.488281 101.773438 143.058594 101.347656 143.058594 100.816406 C 143.058594 100.289062 143.488281 99.859375 144.015625 99.859375 C 144.542969 99.859375 144.972656 100.289062 144.972656 100.816406 M 144.90625 100.816406 C 144.90625 100.324219 144.507812 99.925781 144.015625 99.925781 C 143.523438 99.925781 143.125 100.324219 143.125 100.816406 C 143.125 101.308594 143.523438 101.707031 144.015625 101.707031 C 144.507812 101.707031 144.90625 101.308594 144.90625 100.816406 Z M 144.90625 100.816406 " fill-opacity="1" fill-rule="nonzero"/><path fill="#635538" d="M 144.015625 99.921875 C 143.523438 99.921875 143.121094 100.324219 143.121094 100.816406 C 143.121094 101.308594 143.523438 101.710938 144.015625 101.710938 C 144.507812 101.710938 144.910156 101.308594 144.910156 100.816406 C 144.910156 100.324219 144.507812 99.921875 144.015625 99.921875 Z M 144.015625 99.921875 " fill-opacity="1" fill-rule="nonzero"/><path fill="#635538" d="M 144.832031 101.113281 C 144.800781 101.199219 144.753906 101.28125 144.699219 101.351562 L 144.65625 101.320312 C 144.710938 101.253906 144.753906 101.175781 144.78125 101.097656 Z M 144.683594 101.375 C 144.625 101.441406 144.554688 101.503906 144.476562 101.550781 L 144.449219 101.507812 C 144.523438 101.460938 144.585938 101.40625 144.640625 101.339844 Z M 144.453125 101.566406 C 144.375 101.609375 144.289062 101.644531 144.199219 101.664062 L 144.1875 101.609375 C 144.273438 101.59375 144.355469 101.5625 144.425781 101.519531 Z M 144.171875 101.667969 C 144.125 101.675781 144.074219 101.679688 144.023438 101.679688 C 143.980469 101.679688 143.941406 101.675781 143.902344 101.671875 L 143.910156 101.621094 C 143.945312 101.625 143.984375 101.628906 144.023438 101.628906 C 144.070312 101.628906 144.117188 101.625 144.164062 101.617188 Z M 143.875 101.667969 C 143.785156 101.652344 143.695312 101.621094 143.617188 101.578125 L 143.644531 101.53125 C 143.71875 101.570312 143.796875 101.601562 143.882812 101.617188 Z M 143.59375 101.566406 C 143.515625 101.519531 143.445312 101.460938 143.382812 101.394531 L 143.421875 101.359375 C 143.480469 101.421875 143.546875 101.476562 143.621094 101.519531 Z M 143.363281 101.375 C 143.308594 101.304688 143.257812 101.226562 143.226562 101.140625 L 143.273438 101.121094 C 143.304688 101.203125 143.351562 101.273438 143.40625 101.339844 Z M 143.214844 101.117188 C 143.183594 101.03125 143.167969 100.941406 143.164062 100.847656 L 143.214844 100.847656 C 143.21875 100.933594 143.234375 101.019531 143.265625 101.097656 Z M 143.164062 100.820312 C 143.164062 100.726562 143.179688 100.636719 143.207031 100.554688 L 143.253906 100.570312 C 143.230469 100.648438 143.214844 100.734375 143.214844 100.820312 Z M 143.214844 100.527344 C 143.246094 100.441406 143.289062 100.359375 143.347656 100.289062 L 143.386719 100.324219 C 143.335938 100.390625 143.292969 100.464844 143.265625 100.546875 Z M 143.363281 100.269531 C 143.421875 100.199219 143.492188 100.140625 143.566406 100.089844 L 143.597656 100.136719 C 143.523438 100.179688 143.457031 100.238281 143.402344 100.304688 Z M 143.589844 100.078125 C 143.667969 100.03125 143.753906 100 143.84375 99.980469 L 143.855469 100.03125 C 143.769531 100.046875 143.691406 100.078125 143.617188 100.121094 Z M 143.871094 99.972656 C 143.921875 99.964844 143.972656 99.960938 144.023438 99.960938 C 144.0625 99.960938 144.105469 99.964844 144.144531 99.96875 L 144.136719 100.019531 C 144.097656 100.015625 144.0625 100.011719 144.023438 100.011719 C 143.976562 100.011719 143.925781 100.019531 143.882812 100.027344 Z M 144.171875 99.972656 C 144.261719 99.988281 144.347656 100.019531 144.425781 100.0625 L 144.402344 100.109375 C 144.328125 100.066406 144.246094 100.039062 144.160156 100.023438 Z M 144.453125 100.074219 C 144.53125 100.121094 144.601562 100.175781 144.664062 100.246094 L 144.625 100.28125 C 144.566406 100.21875 144.5 100.164062 144.425781 100.121094 Z M 144.679688 100.265625 C 144.738281 100.335938 144.785156 100.414062 144.820312 100.5 L 144.773438 100.519531 C 144.738281 100.4375 144.695312 100.363281 144.640625 100.300781 Z M 144.832031 100.523438 C 144.863281 100.605469 144.878906 100.695312 144.882812 100.789062 L 144.828125 100.792969 C 144.828125 100.703125 144.808594 100.621094 144.78125 100.542969 Z M 144.882812 100.816406 C 144.882812 100.820312 144.882812 100.820312 144.882812 100.820312 C 144.882812 100.914062 144.867188 101.003906 144.839844 101.089844 L 144.789062 101.074219 C 144.816406 100.992188 144.832031 100.910156 144.832031 100.820312 C 144.832031 100.820312 144.832031 100.820312 144.832031 100.816406 Z M 144.882812 100.816406 " fill-opacity="1" fill-rule="nonzero"/></g><g clip-path="url(#b9c55c426f)"><path fill="#635538" d="M 231.820312 100.804688 C 231.820312 101.425781 231.316406 101.929688 230.695312 101.929688 C 230.074219 101.929688 229.570312 101.425781 229.570312 100.804688 C 229.570312 100.183594 230.074219 99.679688 230.695312 99.679688 C 231.316406 99.679688 231.820312 100.183594 231.820312 100.804688 M 231.753906 100.804688 C 231.753906 100.21875 231.277344 99.746094 230.695312 99.746094 C 230.109375 99.746094 229.636719 100.21875 229.636719 100.804688 C 229.636719 101.386719 230.109375 101.863281 230.695312 101.863281 C 231.277344 101.863281 231.753906 101.386719 231.753906 100.804688 Z M 231.753906 100.804688 " fill-opacity="1" fill-rule="nonzero"/><path fill="#635538" d="M 231.648438 100.816406 C 231.648438 101.347656 231.21875 101.773438 230.6875 101.773438 C 230.160156 101.773438 229.730469 101.347656 229.730469 100.816406 C 229.730469 100.289062 230.160156 99.859375 230.6875 99.859375 C 231.21875 99.859375 231.648438 100.289062 231.648438 100.816406 M 231.582031 100.816406 C 231.582031 100.324219 231.179688 99.925781 230.6875 99.925781 C 230.195312 99.925781 229.796875 100.324219 229.796875 100.816406 C 229.796875 101.308594 230.195312 101.707031 230.6875 101.707031 C 231.179688 101.707031 231.582031 101.308594 231.582031 100.816406 Z M 231.582031 100.816406 " fill-opacity="1" fill-rule="nonzero"/><path fill="#635538" d="M 230.6875 99.921875 C 230.195312 99.921875 229.792969 100.324219 229.792969 100.816406 C 229.792969 101.308594 230.195312 101.710938 230.6875 101.710938 C 231.183594 101.710938 231.582031 101.308594 231.582031 100.816406 C 231.582031 100.324219 231.183594 99.921875 230.6875 99.921875 Z M 230.6875 99.921875 " fill-opacity="1" fill-rule="nonzero"/><path fill="#635538" d="M 231.503906 101.113281 C 231.472656 101.199219 231.429688 101.28125 231.371094 101.351562 L 231.332031 101.320312 C 231.382812 101.253906 231.425781 101.175781 231.453125 101.097656 Z M 231.355469 101.375 C 231.296875 101.441406 231.226562 101.503906 231.148438 101.550781 L 231.121094 101.507812 C 231.195312 101.460938 231.261719 101.40625 231.316406 101.339844 Z M 231.125 101.566406 C 231.050781 101.609375 230.964844 101.644531 230.875 101.664062 L 230.863281 101.609375 C 230.949219 101.59375 231.027344 101.5625 231.101562 101.519531 Z M 230.847656 101.667969 C 230.796875 101.675781 230.746094 101.679688 230.695312 101.679688 C 230.65625 101.679688 230.613281 101.675781 230.574219 101.671875 L 230.582031 101.621094 C 230.621094 101.625 230.65625 101.628906 230.695312 101.628906 C 230.746094 101.628906 230.792969 101.625 230.835938 101.617188 Z M 230.546875 101.667969 C 230.457031 101.652344 230.371094 101.621094 230.289062 101.578125 L 230.316406 101.53125 C 230.390625 101.570312 230.472656 101.601562 230.558594 101.617188 Z M 230.265625 101.566406 C 230.1875 101.519531 230.117188 101.460938 230.054688 101.394531 L 230.09375 101.359375 C 230.152344 101.421875 230.21875 101.476562 230.292969 101.519531 Z M 230.039062 101.375 C 229.980469 101.304688 229.933594 101.226562 229.898438 101.140625 L 229.945312 101.121094 C 229.980469 101.203125 230.023438 101.273438 230.078125 101.339844 Z M 229.886719 101.117188 C 229.859375 101.03125 229.839844 100.941406 229.835938 100.847656 L 229.890625 100.847656 C 229.890625 100.933594 229.910156 101.019531 229.9375 101.097656 Z M 229.835938 100.820312 C 229.835938 100.726562 229.851562 100.636719 229.878906 100.554688 L 229.929688 100.570312 C 229.902344 100.648438 229.890625 100.734375 229.890625 100.820312 Z M 229.886719 100.527344 C 229.917969 100.441406 229.964844 100.359375 230.019531 100.289062 L 230.0625 100.324219 C 230.007812 100.390625 229.964844 100.464844 229.9375 100.546875 Z M 230.035156 100.269531 C 230.09375 100.199219 230.164062 100.140625 230.242188 100.089844 L 230.269531 100.136719 C 230.195312 100.179688 230.132812 100.238281 230.078125 100.304688 Z M 230.265625 100.078125 C 230.34375 100.03125 230.425781 100 230.519531 99.980469 L 230.527344 100.03125 C 230.445312 100.046875 230.363281 100.078125 230.292969 100.121094 Z M 230.542969 99.972656 C 230.59375 99.964844 230.644531 99.960938 230.695312 99.960938 C 230.738281 99.960938 230.777344 99.964844 230.816406 99.96875 L 230.808594 100.019531 C 230.773438 100.015625 230.734375 100.011719 230.695312 100.011719 C 230.648438 100.011719 230.601562 100.019531 230.554688 100.027344 Z M 230.84375 99.972656 C 230.933594 99.988281 231.019531 100.019531 231.101562 100.0625 L 231.074219 100.109375 C 231 100.066406 230.921875 100.039062 230.835938 100.023438 Z M 231.125 100.074219 C 231.203125 100.121094 231.273438 100.175781 231.335938 100.246094 L 231.296875 100.28125 C 231.238281 100.21875 231.171875 100.164062 231.097656 100.121094 Z M 231.351562 100.265625 C 231.410156 100.335938 231.460938 100.414062 231.492188 100.5 L 231.445312 100.519531 C 231.414062 100.4375 231.367188 100.363281 231.3125 100.300781 Z M 231.503906 100.523438 C 231.535156 100.605469 231.550781 100.695312 231.554688 100.789062 L 231.503906 100.792969 C 231.5 100.703125 231.484375 100.621094 231.453125 100.542969 Z M 231.554688 100.816406 C 231.554688 100.820312 231.554688 100.820312 231.554688 100.820312 C 231.554688 100.914062 231.542969 101.003906 231.511719 101.089844 L 231.464844 101.074219 C 231.488281 100.992188 231.503906 100.910156 231.503906 100.820312 C 231.503906 100.820312 231.503906 100.820312 231.503906 100.816406 Z M 231.554688 100.816406 " fill-opacity="1" fill-rule="nonzero"/></g><g fill="#ff3131" fill-opacity="1"><g transform="translate(88.21834, 197.624987)"><g><path d="M 30.042969 -8.621094 C 29.671875 -8.769531 29.265625 -8.621094 29.117188 -8.25 C 24.898438 0.703125 20.828125 7.289062 16.980469 11.320312 C 13.726562 14.726562 10.804688 16.132812 8.472656 15.429688 C 6.363281 14.761719 4.734375 12.28125 3.921875 8.433594 C 2.996094 4.292969 3.035156 -1.035156 3.996094 -6.957031 C 5.363281 -15.390625 9.324219 -27.339844 13.949219 -32.890625 C 15.316406 -34.519531 16.5 -35.296875 17.203125 -34.925781 C 18.941406 -34.074219 19.644531 -27.007812 15.835938 -9.878906 C 15.722656 -9.507812 15.984375 -9.136719 16.351562 -9.027344 C 16.761719 -8.953125 17.128906 -9.210938 17.203125 -9.582031 C 19.683594 -20.644531 21.792969 -34.257812 17.832031 -36.21875 C 16.871094 -36.703125 15.242188 -36.664062 12.875 -33.816406 C 9.914062 -30.265625 7.660156 -24.972656 6.289062 -21.125 C 4.625 -16.574219 3.292969 -11.46875 2.589844 -7.175781 C 0.519531 5.511719 2.738281 15.132812 8.066406 16.796875 C 8.582031 16.945312 9.136719 17.019531 9.691406 17.019531 C 15.539062 17.019531 22.976562 8.214844 30.375 -7.660156 C 30.558594 -8.027344 30.410156 -8.433594 30.042969 -8.621094 Z M 30.042969 -8.621094 "/></g></g></g><g fill="#ff3131" fill-opacity="1"><g transform="translate(116.779301, 197.624987)"><g><path d="M 10.878906 -34.667969 C 10.617188 -35 10.25 -35.148438 9.878906 -35.109375 C 7.769531 -34.742188 5.511719 -26.859375 4.882812 -24.457031 C 3.035156 -17.390625 0.703125 -7.363281 -1.183594 1.628906 C -2.070312 5.882812 -2.773438 9.472656 -3.21875 12.0625 C -3.957031 16.425781 -3.847656 16.980469 -3.144531 17.167969 C -3.070312 17.203125 -2.996094 17.203125 -2.921875 17.203125 C -2.257812 17.203125 -1.925781 16.316406 -1.589844 15.355469 C -1.480469 14.984375 -1.664062 14.578125 -2.035156 14.464844 C -2.070312 14.429688 -2.109375 14.429688 -2.144531 14.429688 C -1.367188 9.101562 1.8125 -6.402344 5.070312 -19.386719 C 5.070312 -19.421875 5.105469 -19.460938 5.144531 -19.496094 C 9.953125 -27.121094 11.839844 -33.1875 10.878906 -34.667969 Z M 6.328125 -24.382812 C 7.734375 -29.597656 8.992188 -32.113281 9.65625 -33.148438 C 9.507812 -31.78125 8.695312 -28.820312 6.328125 -24.382812 Z M 6.328125 -24.382812 "/></g></g></g><g fill="#ff3131" fill-opacity="1"><g transform="translate(122.402698, 197.624987)"><g><path d="M 15.464844 -8.214844 C 15.132812 -8.363281 14.6875 -8.214844 14.539062 -7.878906 C 11.726562 -2.144531 9.621094 -0.332031 8.621094 -0.519531 C 8.214844 -0.59375 6.882812 -1.367188 6.546875 -7.84375 C 6.546875 -8.140625 6.328125 -8.398438 6.066406 -8.472656 C 5.773438 -8.546875 5.4375 -8.472656 5.289062 -8.214844 C 5.070312 -7.953125 4.847656 -7.660156 4.625 -7.324219 C 3.699219 -6.066406 2.480469 -4.367188 1 -2.773438 C 0.777344 -2.515625 0.59375 -2.367188 0.480469 -2.292969 C 0.222656 -3.589844 1.589844 -8.546875 3.773438 -10.101562 C 4.402344 -10.542969 5.253906 -10.878906 6.402344 -9.546875 C 6.660156 -9.25 7.105469 -9.210938 7.398438 -9.472656 C 7.695312 -9.691406 7.734375 -10.175781 7.511719 -10.46875 C 6.105469 -12.097656 4.773438 -12.0625 3.882812 -11.765625 C 1.035156 -10.765625 -0.886719 -5.289062 -0.960938 -2.773438 C -1 -1.738281 -0.703125 -1.074219 -0.109375 -0.851562 C 0.8125 -0.480469 1.738281 -1.480469 2.035156 -1.8125 C 3.292969 -3.183594 4.441406 -4.660156 5.253906 -5.808594 C 5.660156 -1.589844 6.660156 0.519531 8.324219 0.886719 C 8.472656 0.886719 8.621094 0.925781 8.769531 0.925781 C 11.285156 0.925781 13.984375 -3.476562 15.796875 -7.25 C 15.984375 -7.621094 15.835938 -8.027344 15.464844 -8.214844 Z M 15.464844 -8.214844 "/></g></g></g><g fill="#ff3131" fill-opacity="1"><g transform="translate(136.165236, 197.624987)"><g><path d="M 16.242188 -8.363281 C 15.871094 -8.546875 15.429688 -8.398438 15.28125 -8.027344 C 11.023438 0.925781 6.992188 5.511719 6.105469 5.363281 C 6.03125 5.328125 4.734375 4.070312 8.917969 -8.769531 C 9.027344 -9.101562 9.285156 -9.878906 8.695312 -10.285156 C 8.140625 -10.730469 7.511719 -10.324219 6.472656 -9.621094 C 5.363281 -8.917969 3.847656 -7.917969 2.664062 -8.066406 C 6.4375 -14.578125 6.066406 -16.019531 5.214844 -16.574219 C 3.882812 -17.351562 1.960938 -15.09375 1.074219 -13.800781 C -0.738281 -10.988281 -0.703125 -8.433594 1.222656 -7.140625 C 3.183594 -5.773438 5.734375 -7.4375 7.25 -8.433594 C 7.289062 -8.472656 7.289062 -8.472656 7.324219 -8.507812 C 5.882812 -3.957031 4.957031 -0.371094 4.625 2.109375 C 4.21875 4.847656 4.515625 6.289062 5.550781 6.695312 C 5.734375 6.734375 5.882812 6.769531 6.066406 6.769531 C 9.027344 6.769531 14.171875 -2.332031 16.574219 -7.398438 C 16.722656 -7.769531 16.574219 -8.214844 16.242188 -8.363281 Z M 1.292969 -10.914062 C 1.8125 -12.914062 3.550781 -14.761719 4.328125 -15.207031 C 4.253906 -14.613281 3.847656 -12.949219 1.480469 -8.84375 C 1.222656 -9.25 1.035156 -9.878906 1.292969 -10.914062 Z M 1.292969 -10.914062 "/></g></g></g><g fill="#ff3131" fill-opacity="1"><g transform="translate(150.92666, 197.624987)"><g><path d="M 15.910156 -8.324219 C 15.574219 -8.507812 15.132812 -8.398438 14.945312 -8.066406 C 11.800781 -3.035156 6.140625 1.222656 4.03125 0.8125 C 3.699219 0.777344 3.253906 0.59375 3.035156 -0.257812 C 3.144531 -0.40625 3.328125 -0.554688 3.515625 -0.703125 C 4.105469 -1.222656 4.957031 -1.960938 5.699219 -2.886719 C 6.882812 -4.441406 7.398438 -6.328125 6.957031 -7.398438 C 6.734375 -7.84375 6.363281 -8.140625 5.882812 -8.175781 C 4.847656 -8.25 3.664062 -7.214844 2.257812 -5.03125 C 1.589844 -3.996094 0.960938 -2.847656 0.40625 -1.628906 C 1.554688 -6.769531 2.960938 -12.949219 4.03125 -17.574219 C 8.992188 -26.453125 11.46875 -33.113281 10.433594 -34.554688 C 10.210938 -34.851562 9.839844 -35 9.472656 -34.925781 C 7.878906 -34.628906 5.402344 -29.226562 3.738281 -22.382812 C 3.476562 -21.347656 3.109375 -19.832031 2.699219 -18.054688 C 2.664062 -18.019531 2.664062 -17.945312 2.664062 -17.871094 C 0.554688 -8.953125 -2.996094 6.808594 -3.035156 8.027344 C -3.035156 8.398438 -2.773438 8.695312 -2.441406 8.730469 C -2.40625 8.769531 -2.367188 8.769531 -2.292969 8.769531 C -1.996094 8.769531 -1.738281 8.546875 -1.628906 8.25 L -1.480469 7.734375 C -0.257812 3.882812 1.292969 -0.960938 3.441406 -4.253906 C 4.699219 -6.214844 5.4375 -6.660156 5.660156 -6.734375 C 5.773438 -6.328125 5.585938 -5.070312 4.550781 -3.738281 C 3.921875 -2.960938 3.144531 -2.257812 2.554688 -1.777344 C 1.8125 -1.109375 1.480469 -0.8125 1.554688 -0.296875 C 1.925781 1.515625 2.960938 2.070312 3.773438 2.21875 C 3.957031 2.257812 4.144531 2.257812 4.328125 2.257812 C 7.878906 2.257812 13.652344 -3.328125 16.132812 -7.324219 C 16.351562 -7.660156 16.242188 -8.101562 15.910156 -8.324219 Z M 9.210938 -32.890625 C 8.953125 -31.375 7.878906 -28.230469 5.402344 -23.199219 C 6.84375 -28.5625 8.363281 -31.632812 9.210938 -32.890625 Z M 9.210938 -32.890625 "/></g></g></g><g fill="#ff3131" fill-opacity="1"><g transform="translate(165.35513, 197.624987)"><g/></g></g><g fill="#ff3131" fill-opacity="1"><g transform="translate(176.712921, 197.624987)"><g><path d="M 46.285156 -31.890625 C 46.171875 -34.039062 45.507812 -35.183594 44.324219 -35.296875 C 40.625 -35.738281 33.925781 -23.160156 27.894531 -4.957031 C 30.449219 -23.050781 28.859375 -26.082031 27.046875 -26.488281 C 26.15625 -26.675781 23.53125 -27.265625 16.390625 -10.839844 C 13.132812 -3.402344 9.765625 5.773438 6.957031 14.726562 C 9.433594 2.625 14.355469 -18.867188 15.984375 -25.640625 C 17.019531 -30.003906 16.796875 -32.59375 15.355469 -33.519531 C 14.578125 -34 13.132812 -34.1875 10.582031 -32.226562 C 7.992188 -30.226562 5.144531 -26.636719 3.109375 -22.902344 C 1.738281 -20.347656 -0.371094 -15.539062 0.851562 -11.914062 C 1.996094 -8.507812 5.550781 -7.734375 8.324219 -7.695312 C 8.730469 -7.695312 9.027344 -7.992188 9.027344 -8.398438 C 9.0625 -8.804688 8.730469 -9.101562 8.324219 -9.101562 C 4.957031 -9.175781 2.921875 -10.25 2.183594 -12.394531 C 0.519531 -17.425781 6.585938 -27.304688 11.46875 -31.113281 C 12.875 -32.1875 14.058594 -32.667969 14.613281 -32.296875 C 14.910156 -32.113281 15.796875 -31.078125 14.578125 -25.972656 C 13.910156 -23.125 11.0625 -10.914062 8.433594 1 C 7.03125 7.472656 5.917969 12.652344 5.179688 16.351562 C 4.773438 18.5 4.476562 20.164062 4.292969 21.3125 C 4.03125 23.050781 3.957031 23.789062 4.699219 24.011719 C 4.773438 24.046875 4.847656 24.085938 4.957031 24.085938 C 5.550781 24.085938 5.84375 23.269531 6.179688 22.382812 C 6.179688 22.347656 6.179688 22.347656 6.214844 22.308594 C 9.285156 11.285156 13.578125 -0.886719 17.683594 -10.285156 C 24.269531 -25.453125 26.636719 -25.121094 26.75 -25.085938 C 26.785156 -25.085938 27.933594 -24.75 27.785156 -18.460938 C 27.636719 -13.394531 26.710938 -5.660156 25.011719 4.441406 C 24.9375 4.808594 25.195312 5.179688 25.566406 5.253906 C 25.933594 5.328125 26.304688 5.144531 26.378906 4.773438 C 30.707031 -10.136719 34.667969 -19.386719 37.257812 -24.53125 C 40.992188 -31.964844 43.359375 -33.890625 44.136719 -33.890625 C 44.136719 -33.890625 44.175781 -33.890625 44.175781 -33.890625 C 44.472656 -33.851562 44.804688 -33.222656 44.878906 -31.816406 C 45.175781 -27.15625 42.953125 -14.945312 40.992188 -4.179688 C 37.625 14.28125 37.292969 17.609375 38.738281 18.128906 C 39.625 18.460938 40.328125 17.425781 40.917969 16.390625 C 41.105469 16.058594 40.992188 15.613281 40.660156 15.429688 C 40.328125 15.242188 39.882812 15.355469 39.660156 15.6875 C 39.550781 15.910156 39.4375 16.09375 39.328125 16.242188 C 39.253906 13.394531 40.992188 3.882812 42.398438 -3.921875 C 44.472656 -15.316406 46.617188 -27.082031 46.285156 -31.890625 Z M 46.285156 -31.890625 "/></g></g></g><g fill="#ff3131" fill-opacity="1"><g transform="translate(223.586934, 197.624987)"><g><path d="M 10.804688 -8.398438 C 10.46875 -8.621094 10.0625 -8.507812 9.839844 -8.175781 C 7.363281 -4.179688 3.21875 -0.40625 1.960938 -0.925781 C 1.8125 -1 0.628906 -1.703125 2.257812 -7.953125 C 2.332031 -8.363281 2.109375 -8.730469 1.738281 -8.84375 C 1.332031 -8.917969 0.960938 -8.695312 0.851562 -8.324219 C -0.480469 -3.109375 -0.296875 -0.332031 1.367188 0.371094 C 1.628906 0.480469 1.886719 0.519531 2.144531 0.519531 C 4.921875 0.519531 9.175781 -4.441406 11.0625 -7.4375 C 11.246094 -7.769531 11.136719 -8.214844 10.804688 -8.398438 Z M 2.070312 -11.394531 C 3.957031 -11.285156 3.921875 -13.652344 2.40625 -13.132812 C 1.628906 -12.914062 0.628906 -11.46875 2.070312 -11.394531 Z M 2.070312 -11.394531 "/></g></g></g><g fill="#ff3131" fill-opacity="1"><g transform="translate(232.946942, 197.624987)"><g><path d="M 31.226562 -21.828125 C 30.746094 -22.496094 28.597656 -22.902344 5.625 -22.382812 C 6.363281 -25.378906 7.03125 -28.082031 7.621094 -30.265625 C 7.734375 -30.671875 7.511719 -31.039062 7.140625 -31.152344 C 6.769531 -31.261719 6.363281 -31.039062 6.253906 -30.671875 C 5.625 -28.339844 4.921875 -25.527344 4.144531 -22.347656 C 2.109375 -22.308594 -0.109375 -22.273438 -2.515625 -22.199219 C -5.808594 -22.125 -8.398438 -22.050781 -9.398438 -22.050781 C -9.804688 -22.050781 -10.136719 -21.71875 -10.136719 -21.347656 C -10.136719 -20.941406 -9.804688 -20.609375 -9.398438 -20.609375 C -8.363281 -20.644531 -5.773438 -20.679688 -2.480469 -20.792969 C -0.738281 -20.828125 1.40625 -20.867188 3.8125 -20.941406 C 2.21875 -14.207031 0.40625 -6.140625 -1.222656 1.738281 C -2.40625 7.511719 -3.367188 12.503906 -3.996094 16.167969 C -4.328125 18.089844 -4.550781 19.609375 -4.660156 20.644531 C -4.808594 22.050781 -4.882812 22.863281 -4.179688 23.125 C -4.070312 23.125 -3.996094 23.160156 -3.882812 23.160156 C -3.253906 23.160156 -2.921875 22.273438 -2.625 21.457031 C -2.480469 21.089844 -2.664062 20.679688 -3.035156 20.535156 C -3.109375 20.535156 -3.144531 20.496094 -3.21875 20.496094 C -2.847656 17.609375 -1.738281 11.136719 0.40625 0.925781 C 1.996094 -6.808594 3.738281 -14.539062 5.289062 -20.976562 C 15.464844 -21.199219 28.671875 -21.382812 30.191406 -20.867188 C 30.449219 -20.644531 30.78125 -20.644531 31.078125 -20.828125 C 31.375 -21.050781 31.449219 -21.496094 31.226562 -21.828125 Z M 31.226562 -21.828125 "/></g></g></g><g fill="#ff3131" fill-opacity="1"><g transform="translate(237.86742, 197.624987)"><g><path d="M 12.210938 -8.398438 C 11.875 -8.582031 11.433594 -8.507812 11.246094 -8.175781 C 8.730469 -4.367188 4.550781 1.996094 1.8125 1.40625 C 1.367188 1.292969 1 1 0.738281 0.519531 C 0 -0.8125 0.109375 -3.476562 0.960938 -5.808594 C 1.886719 -8.289062 2.996094 -8.917969 3.21875 -8.878906 C 3.253906 -8.84375 3.476562 -8.363281 3.183594 -7.214844 C 3.070312 -6.808594 3.292969 -6.4375 3.664062 -6.328125 C 4.070312 -6.253906 4.441406 -6.472656 4.550781 -6.84375 C 5.253906 -9.507812 4.03125 -10.101562 3.664062 -10.25 C 2.292969 -10.65625 0.628906 -9.027344 -0.371094 -6.289062 C -1.222656 -3.996094 -1.589844 -0.738281 -0.480469 1.222656 C -0.0351562 2.070312 0.664062 2.589844 1.515625 2.773438 C 1.738281 2.847656 1.960938 2.847656 2.183594 2.847656 C 5.402344 2.847656 8.878906 -1.996094 12.429688 -7.398438 C 12.652344 -7.734375 12.542969 -8.175781 12.210938 -8.398438 Z M 12.210938 -8.398438 "/></g></g></g><g fill="#ff3131" fill-opacity="1"><g transform="translate(248.818259, 197.624987)"><g><path d="M 17.5 -8.433594 C 17.167969 -8.65625 16.722656 -8.546875 16.539062 -8.214844 C 11.285156 0.257812 9.433594 0.0742188 9.25 0.0351562 C 8.878906 -0.0742188 8.472656 -0.8125 8.363281 -2.625 C 8.324219 -3.441406 8.140625 -5.882812 6.511719 -6.105469 C 4.625 -6.363281 2.367188 -3.070312 0.332031 1.183594 C 1.589844 -4.441406 3.402344 -12.171875 4.734375 -17.648438 C 9.691406 -26.5625 12.210938 -33.261719 11.171875 -34.703125 C 10.953125 -35.035156 10.582031 -35.148438 10.210938 -35.074219 C 8.621094 -34.777344 6.140625 -29.375 4.476562 -22.53125 C 4.402344 -22.273438 -2.21875 4.773438 -2.441406 8.101562 C -2.441406 8.472656 -2.21875 8.769531 -1.851562 8.84375 C -1.8125 8.84375 -1.777344 8.84375 -1.738281 8.84375 C -1.441406 8.84375 -1.148438 8.65625 -1.035156 8.398438 C 2.183594 -0.851562 5.328125 -4.699219 6.253906 -4.699219 C 6.289062 -4.699219 6.289062 -4.699219 6.289062 -4.699219 C 6.4375 -4.699219 6.84375 -4.253906 6.957031 -2.554688 C 6.992188 -1.664062 7.175781 0.960938 8.878906 1.40625 C 9.621094 1.589844 11.800781 2.144531 17.722656 -7.472656 C 17.945312 -7.804688 17.832031 -8.25 17.5 -8.433594 Z M 9.953125 -33.039062 C 9.65625 -31.558594 8.621094 -28.378906 6.140625 -23.382812 C 7.546875 -28.710938 9.0625 -31.78125 9.953125 -33.039062 Z M 9.953125 -33.039062 "/></g></g></g><g fill="#ff3131" fill-opacity="1"><g transform="translate(264.763563, 197.624987)"><g><path d="M 12.503906 -8.25 C 12.171875 -8.472656 11.726562 -8.398438 11.507812 -8.066406 C 8.730469 -4.179688 6.472656 -1.738281 4.253906 -0.148438 C 3.144531 0.628906 2.070312 0.777344 1.367188 0.257812 C 0.925781 -0.0742188 -0.445312 -1.554688 1.148438 -6.734375 C 4.734375 -9.691406 6.695312 -12.503906 6.179688 -13.984375 C 5.992188 -14.429688 5.550781 -14.726562 5.070312 -14.726562 C 3.589844 -14.6875 1.332031 -12.136719 -0.148438 -7.363281 C -1.960938 -1.480469 -0.480469 0.664062 0.554688 1.40625 C 1.074219 1.8125 1.664062 1.996094 2.332031 1.996094 C 3.183594 1.996094 4.144531 1.664062 5.070312 1 C 7.4375 -0.703125 9.765625 -3.21875 12.652344 -7.25 C 12.875 -7.585938 12.800781 -8.027344 12.503906 -8.25 Z M 4.773438 -13.171875 C 4.625 -12.578125 3.996094 -11.394531 2.257812 -9.621094 C 3.21875 -11.765625 4.253906 -12.800781 4.773438 -13.171875 Z M 4.773438 -13.171875 "/></g></g></g><g fill="#ff3131" fill-opacity="1"><g transform="translate(275.52942, 197.624987)"><g><path d="M 10.878906 -34.667969 C 10.617188 -35 10.25 -35.148438 9.878906 -35.109375 C 7.769531 -34.742188 5.511719 -26.859375 4.882812 -24.457031 C 3.035156 -17.390625 0.703125 -7.363281 -1.183594 1.628906 C -2.070312 5.882812 -2.773438 9.472656 -3.21875 12.0625 C -3.957031 16.425781 -3.847656 16.980469 -3.144531 17.167969 C -3.070312 17.203125 -2.996094 17.203125 -2.921875 17.203125 C -2.257812 17.203125 -1.925781 16.316406 -1.589844 15.355469 C -1.480469 14.984375 -1.664062 14.578125 -2.035156 14.464844 C -2.070312 14.429688 -2.109375 14.429688 -2.144531 14.429688 C -1.367188 9.101562 1.8125 -6.402344 5.070312 -19.386719 C 5.070312 -19.421875 5.105469 -19.460938 5.144531 -19.496094 C 9.953125 -27.121094 11.839844 -33.1875 10.878906 -34.667969 Z M 6.328125 -24.382812 C 7.734375 -29.597656 8.992188 -32.113281 9.65625 -33.148438 C 9.507812 -31.78125 8.695312 -28.820312 6.328125 -24.382812 Z M 6.328125 -24.382812 "/></g></g></g><g fill="#ff3131" fill-opacity="1"><g transform="translate(281.152806, 197.624987)"><g><path d="M 10.878906 -34.667969 C 10.617188 -35 10.25 -35.148438 9.878906 -35.109375 C 7.769531 -34.742188 5.511719 -26.859375 4.882812 -24.457031 C 3.035156 -17.390625 0.703125 -7.363281 -1.183594 1.628906 C -2.070312 5.882812 -2.773438 9.472656 -3.21875 12.0625 C -3.957031 16.425781 -3.847656 16.980469 -3.144531 17.167969 C -3.070312 17.203125 -2.996094 17.203125 -2.921875 17.203125 C -2.257812 17.203125 -1.925781 16.316406 -1.589844 15.355469 C -1.480469 14.984375 -1.664062 14.578125 -2.035156 14.464844 C -2.070312 14.429688 -2.109375 14.429688 -2.144531 14.429688 C -1.367188 9.101562 1.8125 -6.402344 5.070312 -19.386719 C 5.070312 -19.421875 5.105469 -19.460938 5.144531 -19.496094 C 9.953125 -27.121094 11.839844 -33.1875 10.878906 -34.667969 Z M 6.328125 -24.382812 C 7.734375 -29.597656 8.992188 -32.113281 9.65625 -33.148438 C 9.507812 -31.78125 8.695312 -28.820312 6.328125 -24.382812 Z M 6.328125 -24.382812 "/></g></g></g><g fill="#c3c1bb" fill-opacity="1"><g transform="translate(103.454243, 281.304591)"><g><path d="M 2.609375 0.09375 C 2.160156 0.09375 1.703125 0.0195312 1.234375 -0.125 C 0.765625 -0.28125 0.429688 -0.429688 0.234375 -0.578125 L 0.234375 -2.6875 L 0.859375 -2.75 C 0.910156 -2.332031 0.96875 -1.984375 1.03125 -1.703125 C 1.09375 -1.421875 1.191406 -1.132812 1.328125 -0.84375 C 1.753906 -0.644531 2.238281 -0.546875 2.78125 -0.546875 C 3.257812 -0.546875 3.644531 -0.675781 3.9375 -0.9375 C 4.238281 -1.207031 4.390625 -1.578125 4.390625 -2.046875 C 4.390625 -2.378906 4.304688 -2.660156 4.140625 -2.890625 C 3.972656 -3.128906 3.765625 -3.316406 3.515625 -3.453125 C 3.273438 -3.597656 2.953125 -3.753906 2.546875 -3.921875 C 2.078125 -4.117188 1.695312 -4.304688 1.40625 -4.484375 C 1.113281 -4.671875 0.863281 -4.921875 0.65625 -5.234375 C 0.445312 -5.546875 0.34375 -5.9375 0.34375 -6.40625 C 0.34375 -7.09375 0.578125 -7.640625 1.046875 -8.046875 C 1.515625 -8.460938 2.160156 -8.671875 2.984375 -8.671875 C 3.410156 -8.671875 3.8125 -8.597656 4.1875 -8.453125 C 4.5625 -8.304688 4.859375 -8.109375 5.078125 -7.859375 C 5.296875 -7.609375 5.40625 -7.335938 5.40625 -7.046875 C 5.40625 -6.492188 5.191406 -6.21875 4.765625 -6.21875 C 4.566406 -6.21875 4.410156 -6.25 4.296875 -6.3125 C 4.191406 -6.375 4.097656 -6.460938 4.015625 -6.578125 C 4.191406 -6.753906 4.28125 -6.972656 4.28125 -7.234375 C 4.28125 -7.453125 4.164062 -7.632812 3.9375 -7.78125 C 3.707031 -7.9375 3.382812 -8.015625 2.96875 -8.015625 C 2.488281 -8.015625 2.113281 -7.898438 1.84375 -7.671875 C 1.582031 -7.453125 1.453125 -7.132812 1.453125 -6.71875 C 1.453125 -6.414062 1.53125 -6.160156 1.6875 -5.953125 C 1.84375 -5.742188 2.035156 -5.570312 2.265625 -5.4375 C 2.492188 -5.3125 2.816406 -5.160156 3.234375 -4.984375 C 3.734375 -4.773438 4.132812 -4.578125 4.4375 -4.390625 C 4.75 -4.203125 5.007812 -3.9375 5.21875 -3.59375 C 5.4375 -3.257812 5.546875 -2.835938 5.546875 -2.328125 C 5.546875 -1.546875 5.273438 -0.945312 4.734375 -0.53125 C 4.203125 -0.113281 3.492188 0.09375 2.609375 0.09375 Z M 2.609375 0.09375 "/></g></g></g><g fill="#c3c1bb" fill-opacity="1"><g transform="translate(111.565045, 281.304591)"><g><path d="M 3.84375 0.09375 C 2.59375 0.09375 1.691406 -0.28125 1.140625 -1.03125 C 0.597656 -1.789062 0.328125 -2.875 0.328125 -4.28125 C 0.328125 -5.695312 0.597656 -6.78125 1.140625 -7.53125 C 1.691406 -8.289062 2.59375 -8.671875 3.84375 -8.671875 C 5.09375 -8.671875 5.988281 -8.289062 6.53125 -7.53125 C 7.070312 -6.78125 7.34375 -5.691406 7.34375 -4.265625 C 7.34375 -2.859375 7.070312 -1.78125 6.53125 -1.03125 C 5.988281 -0.28125 5.09375 0.09375 3.84375 0.09375 Z M 3.84375 -0.53125 C 4.457031 -0.53125 4.921875 -0.695312 5.234375 -1.03125 C 5.554688 -1.363281 5.773438 -1.796875 5.890625 -2.328125 C 6.003906 -2.867188 6.0625 -3.515625 6.0625 -4.265625 C 6.0625 -5.023438 6.003906 -5.675781 5.890625 -6.21875 C 5.773438 -6.757812 5.554688 -7.195312 5.234375 -7.53125 C 4.921875 -7.863281 4.457031 -8.03125 3.84375 -8.03125 C 3.238281 -8.03125 2.773438 -7.863281 2.453125 -7.53125 C 2.128906 -7.195312 1.910156 -6.757812 1.796875 -6.21875 C 1.679688 -5.6875 1.625 -5.039062 1.625 -4.28125 C 1.625 -3.113281 1.773438 -2.195312 2.078125 -1.53125 C 2.390625 -0.863281 2.976562 -0.53125 3.84375 -0.53125 Z M 3.84375 -0.53125 "/></g></g></g><g fill="#c3c1bb" fill-opacity="1"><g transform="translate(121.549325, 281.304591)"><g><path d="M 0.46875 -0.46875 C 0.6875 -0.5 0.910156 -0.546875 1.140625 -0.609375 C 1.378906 -0.671875 1.546875 -0.742188 1.640625 -0.828125 L 1.640625 -7.75 C 1.304688 -7.914062 0.890625 -8.03125 0.390625 -8.09375 L 0.453125 -8.5625 L 6.171875 -8.5625 L 6.265625 -6.609375 C 6.160156 -6.566406 6.046875 -6.546875 5.921875 -6.546875 C 5.828125 -6.546875 5.757812 -6.550781 5.71875 -6.5625 C 5.613281 -7.09375 5.414062 -7.53125 5.125 -7.875 L 2.765625 -7.875 L 2.765625 -4.5625 L 4.21875 -4.625 C 4.40625 -4.632812 4.554688 -4.726562 4.671875 -4.90625 C 4.796875 -5.09375 4.882812 -5.289062 4.9375 -5.5 L 5.34375 -5.5 L 5.34375 -2.96875 L 4.9375 -2.96875 C 4.875 -3.269531 4.78125 -3.5 4.65625 -3.65625 C 4.539062 -3.8125 4.390625 -3.894531 4.203125 -3.90625 L 2.765625 -3.984375 L 2.765625 -0.828125 C 3.035156 -0.660156 3.453125 -0.539062 4.015625 -0.46875 L 3.96875 0 L 0.390625 0 Z M 0.46875 -0.46875 "/></g></g></g><g fill="#c3c1bb" fill-opacity="1"><g transform="translate(130.378725, 281.304591)"><g><path d="M 1.84375 -0.46875 C 2.351562 -0.53125 2.742188 -0.648438 3.015625 -0.828125 L 3.015625 -7.984375 C 2.359375 -7.972656 1.796875 -7.941406 1.328125 -7.890625 C 1.179688 -7.671875 1.066406 -7.421875 0.984375 -7.140625 C 0.898438 -6.867188 0.851562 -6.625 0.84375 -6.40625 C 0.78125 -6.394531 0.691406 -6.390625 0.578125 -6.390625 C 0.441406 -6.390625 0.34375 -6.394531 0.28125 -6.40625 L 0.28125 -8.609375 C 1.457031 -8.578125 2.550781 -8.5625 3.5625 -8.5625 C 4.238281 -8.5625 4.890625 -8.566406 5.515625 -8.578125 C 6.148438 -8.585938 6.597656 -8.597656 6.859375 -8.609375 L 6.859375 -6.40625 C 6.796875 -6.394531 6.707031 -6.390625 6.59375 -6.390625 C 6.46875 -6.390625 6.367188 -6.394531 6.296875 -6.40625 C 6.234375 -7.019531 6.082031 -7.507812 5.84375 -7.875 C 5.28125 -7.9375 4.710938 -7.972656 4.140625 -7.984375 L 4.140625 -0.828125 C 4.441406 -0.660156 4.863281 -0.539062 5.40625 -0.46875 L 5.34375 0 L 1.765625 0 Z M 1.84375 -0.46875 "/></g></g></g><g fill="#c3c1bb" fill-opacity="1"><g transform="translate(139.824068, 281.304591)"><g><path d="M 0.828125 -7.765625 C 0.628906 -7.910156 0.367188 -8.019531 0.046875 -8.09375 L 0.109375 -8.5625 L 3.21875 -8.5625 L 3.140625 -8.09375 C 2.691406 -8.03125 2.328125 -7.914062 2.046875 -7.75 L 3.734375 -2.046875 L 5.640625 -8.5625 L 6.0625 -8.5625 L 8.109375 -2.0625 L 9.640625 -7.75 C 9.296875 -7.925781 8.90625 -8.039062 8.46875 -8.09375 L 8.53125 -8.5625 L 11.359375 -8.5625 L 11.28125 -8.09375 C 11 -8.039062 10.738281 -7.9375 10.5 -7.78125 L 8.28125 0 L 7.671875 0 L 5.703125 -5.921875 L 3.90625 0 L 3.28125 0 Z M 0.828125 -7.765625 "/></g></g></g><g fill="#c3c1bb" fill-opacity="1"><g transform="translate(153.529649, 281.304591)"><g><path d="M 0.078125 -0.46875 C 0.273438 -0.507812 0.441406 -0.550781 0.578125 -0.59375 C 0.710938 -0.632812 0.847656 -0.707031 0.984375 -0.8125 L 3.390625 -8.5625 L 4.15625 -8.5625 L 6.796875 -0.796875 C 7.015625 -0.640625 7.296875 -0.53125 7.640625 -0.46875 L 7.59375 0 L 4.390625 0 L 4.453125 -0.46875 C 4.953125 -0.53125 5.34375 -0.648438 5.625 -0.828125 L 4.984375 -2.765625 L 2.390625 -2.765625 L 1.796875 -0.828125 C 2.078125 -0.660156 2.492188 -0.539062 3.046875 -0.46875 L 2.984375 0 L 0.015625 0 Z M 4.765625 -3.421875 L 3.625 -6.765625 L 2.59375 -3.421875 Z M 4.765625 -3.421875 "/></g></g></g><g fill="#c3c1bb" fill-opacity="1"><g transform="translate(163.513932, 281.304591)"><g><path d="M 0.46875 -0.46875 C 0.957031 -0.53125 1.347656 -0.648438 1.640625 -0.828125 L 1.640625 -7.75 C 1.335938 -7.914062 0.921875 -8.03125 0.390625 -8.09375 L 0.453125 -8.5625 L 3.75 -8.5625 C 5.707031 -8.5625 6.6875 -7.804688 6.6875 -6.296875 C 6.6875 -5.734375 6.539062 -5.273438 6.25 -4.921875 C 5.96875 -4.578125 5.519531 -4.332031 4.90625 -4.1875 C 5.070312 -4.082031 5.21875 -3.9375 5.34375 -3.75 C 5.46875 -3.570312 5.585938 -3.347656 5.703125 -3.078125 L 6.71875 -0.828125 C 6.976562 -0.648438 7.335938 -0.535156 7.796875 -0.484375 L 7.71875 0 L 5.78125 0 L 4.671875 -2.859375 C 4.523438 -3.222656 4.394531 -3.476562 4.28125 -3.625 C 4.175781 -3.769531 4.039062 -3.863281 3.875 -3.90625 C 3.707031 -3.957031 3.425781 -3.984375 3.03125 -3.984375 L 2.765625 -3.984375 L 2.765625 -0.828125 C 2.898438 -0.742188 3.0625 -0.671875 3.25 -0.609375 C 3.4375 -0.554688 3.691406 -0.507812 4.015625 -0.46875 L 3.953125 0 L 0.390625 0 Z M 3.171875 -4.578125 C 3.972656 -4.578125 4.566406 -4.71875 4.953125 -5 C 5.335938 -5.289062 5.53125 -5.734375 5.53125 -6.328125 C 5.53125 -6.890625 5.378906 -7.3125 5.078125 -7.59375 C 4.773438 -7.882812 4.328125 -8.03125 3.734375 -8.03125 C 3.441406 -8.03125 3.117188 -8 2.765625 -7.9375 L 2.765625 -4.578125 Z M 3.171875 -4.578125 "/></g></g></g><g fill="#c3c1bb" fill-opacity="1"><g transform="translate(173.677864, 281.304591)"><g><path d="M 0.46875 -0.46875 C 0.6875 -0.5 0.910156 -0.546875 1.140625 -0.609375 C 1.378906 -0.671875 1.546875 -0.742188 1.640625 -0.828125 L 1.640625 -7.75 C 1.316406 -7.914062 0.898438 -8.03125 0.390625 -8.09375 L 0.453125 -8.5625 L 6.171875 -8.5625 L 6.265625 -6.609375 C 6.160156 -6.566406 6.039062 -6.546875 5.90625 -6.546875 C 5.863281 -6.546875 5.800781 -6.550781 5.71875 -6.5625 C 5.601562 -7.132812 5.425781 -7.570312 5.1875 -7.875 L 2.765625 -7.875 L 2.765625 -4.671875 L 4.21875 -4.734375 C 4.394531 -4.742188 4.539062 -4.820312 4.65625 -4.96875 C 4.769531 -5.125 4.863281 -5.332031 4.9375 -5.59375 L 5.34375 -5.59375 L 5.34375 -3.046875 L 4.9375 -3.046875 C 4.832031 -3.421875 4.734375 -3.671875 4.640625 -3.796875 C 4.546875 -3.921875 4.394531 -3.988281 4.1875 -4 L 2.765625 -4.078125 L 2.765625 -0.75 L 5.5 -0.75 C 5.757812 -1.101562 5.945312 -1.582031 6.0625 -2.1875 C 6.15625 -2.207031 6.234375 -2.21875 6.296875 -2.21875 C 6.335938 -2.21875 6.425781 -2.207031 6.5625 -2.1875 L 6.453125 0 L 0.390625 0 Z M 0.46875 -0.46875 "/></g></g></g><g fill="#c3c1bb" fill-opacity="1"><g transform="translate(182.905063, 281.304591)"><g/></g></g><g fill="#c3c1bb" fill-opacity="1"><g transform="translate(188.026002, 281.304591)"><g><path d="M 0.46875 -0.46875 C 0.71875 -0.507812 0.929688 -0.550781 1.109375 -0.59375 C 1.296875 -0.632812 1.46875 -0.707031 1.625 -0.8125 L 1.625 -7.75 C 1.332031 -7.90625 0.921875 -8.019531 0.390625 -8.09375 L 0.453125 -8.5625 L 3.203125 -8.5625 C 4.703125 -8.5625 5.820312 -8.21875 6.5625 -7.53125 C 7.3125 -6.84375 7.6875 -5.753906 7.6875 -4.265625 C 7.6875 -2.773438 7.3125 -1.691406 6.5625 -1.015625 C 5.8125 -0.335938 4.664062 0 3.125 0 L 0.390625 0 Z M 3.34375 -0.625 C 4.375 -0.625 5.140625 -0.898438 5.640625 -1.453125 C 6.148438 -2.003906 6.40625 -2.945312 6.40625 -4.28125 C 6.40625 -5.601562 6.15625 -6.539062 5.65625 -7.09375 C 5.15625 -7.644531 4.398438 -7.921875 3.390625 -7.921875 L 2.765625 -7.921875 L 2.765625 -0.6875 C 2.910156 -0.644531 3.101562 -0.625 3.34375 -0.625 Z M 3.34375 -0.625 "/></g></g></g><g fill="#c3c1bb" fill-opacity="1"><g transform="translate(198.34392, 281.304591)"><g><path d="M 0.46875 -0.46875 C 0.6875 -0.5 0.910156 -0.546875 1.140625 -0.609375 C 1.378906 -0.671875 1.546875 -0.742188 1.640625 -0.828125 L 1.640625 -7.75 C 1.316406 -7.914062 0.898438 -8.03125 0.390625 -8.09375 L 0.453125 -8.5625 L 6.171875 -8.5625 L 6.265625 -6.609375 C 6.160156 -6.566406 6.039062 -6.546875 5.90625 -6.546875 C 5.863281 -6.546875 5.800781 -6.550781 5.71875 -6.5625 C 5.601562 -7.132812 5.425781 -7.570312 5.1875 -7.875 L 2.765625 -7.875 L 2.765625 -4.671875 L 4.21875 -4.734375 C 4.394531 -4.742188 4.539062 -4.820312 4.65625 -4.96875 C 4.769531 -5.125 4.863281 -5.332031 4.9375 -5.59375 L 5.34375 -5.59375 L 5.34375 -3.046875 L 4.9375 -3.046875 C 4.832031 -3.421875 4.734375 -3.671875 4.640625 -3.796875 C 4.546875 -3.921875 4.394531 -3.988281 4.1875 -4 L 2.765625 -4.078125 L 2.765625 -0.75 L 5.5 -0.75 C 5.757812 -1.101562 5.945312 -1.582031 6.0625 -2.1875 C 6.15625 -2.207031 6.234375 -2.21875 6.296875 -2.21875 C 6.335938 -2.21875 6.425781 -2.207031 6.5625 -2.1875 L 6.453125 0 L 0.390625 0 Z M 0.46875 -0.46875 "/></g></g></g><g fill="#c3c1bb" fill-opacity="1"><g transform="translate(207.571119, 281.304591)"><g><path d="M 0.828125 -7.75 C 0.648438 -7.90625 0.390625 -8.019531 0.046875 -8.09375 L 0.109375 -8.5625 L 3.21875 -8.5625 L 3.140625 -8.09375 C 2.691406 -8.03125 2.328125 -7.914062 2.046875 -7.75 L 4.046875 -1.96875 L 5.890625 -7.75 C 5.546875 -7.925781 5.15625 -8.039062 4.71875 -8.09375 L 4.78125 -8.5625 L 7.609375 -8.5625 L 7.53125 -8.09375 C 7.238281 -8.039062 6.972656 -7.929688 6.734375 -7.765625 L 4.21875 0 L 3.609375 0 Z M 0.828125 -7.75 "/></g></g></g><g fill="#c3c1bb" fill-opacity="1"><g transform="translate(217.542573, 281.304591)"><g><path d="M 0.46875 -0.46875 C 0.6875 -0.5 0.910156 -0.546875 1.140625 -0.609375 C 1.378906 -0.671875 1.546875 -0.742188 1.640625 -0.828125 L 1.640625 -7.75 C 1.316406 -7.914062 0.898438 -8.03125 0.390625 -8.09375 L 0.453125 -8.5625 L 6.171875 -8.5625 L 6.265625 -6.609375 C 6.160156 -6.566406 6.039062 -6.546875 5.90625 -6.546875 C 5.863281 -6.546875 5.800781 -6.550781 5.71875 -6.5625 C 5.601562 -7.132812 5.425781 -7.570312 5.1875 -7.875 L 2.765625 -7.875 L 2.765625 -4.671875 L 4.21875 -4.734375 C 4.394531 -4.742188 4.539062 -4.820312 4.65625 -4.96875 C 4.769531 -5.125 4.863281 -5.332031 4.9375 -5.59375 L 5.34375 -5.59375 L 5.34375 -3.046875 L 4.9375 -3.046875 C 4.832031 -3.421875 4.734375 -3.671875 4.640625 -3.796875 C 4.546875 -3.921875 4.394531 -3.988281 4.1875 -4 L 2.765625 -4.078125 L 2.765625 -0.75 L 5.5 -0.75 C 5.757812 -1.101562 5.945312 -1.582031 6.0625 -2.1875 C 6.15625 -2.207031 6.234375 -2.21875 6.296875 -2.21875 C 6.335938 -2.21875 6.425781 -2.207031 6.5625 -2.1875 L 6.453125 0 L 0.390625 0 Z M 0.46875 -0.46875 "/></g></g></g><g fill="#c3c1bb" fill-opacity="1"><g transform="translate(226.769772, 281.304591)"><g><path d="M 0.46875 -0.46875 C 0.96875 -0.53125 1.347656 -0.648438 1.609375 -0.828125 L 1.609375 -7.75 C 1.296875 -7.914062 0.890625 -8.03125 0.390625 -8.09375 L 0.453125 -8.5625 L 4 -8.5625 L 3.9375 -8.09375 C 3.46875 -8.03125 3.078125 -7.914062 2.765625 -7.75 L 2.765625 -0.75 L 5.15625 -0.75 C 5.414062 -1.125 5.597656 -1.601562 5.703125 -2.1875 C 5.773438 -2.21875 5.851562 -2.234375 5.9375 -2.234375 C 6.019531 -2.234375 6.113281 -2.21875 6.21875 -2.1875 L 6.109375 0 L 0.390625 0 Z M 0.46875 -0.46875 "/></g></g></g><g fill="#c3c1bb" fill-opacity="1"><g transform="translate(235.49652, 281.304591)"><g><path d="M 3.84375 0.09375 C 2.59375 0.09375 1.691406 -0.28125 1.140625 -1.03125 C 0.597656 -1.789062 0.328125 -2.875 0.328125 -4.28125 C 0.328125 -5.695312 0.597656 -6.78125 1.140625 -7.53125 C 1.691406 -8.289062 2.59375 -8.671875 3.84375 -8.671875 C 5.09375 -8.671875 5.988281 -8.289062 6.53125 -7.53125 C 7.070312 -6.78125 7.34375 -5.691406 7.34375 -4.265625 C 7.34375 -2.859375 7.070312 -1.78125 6.53125 -1.03125 C 5.988281 -0.28125 5.09375 0.09375 3.84375 0.09375 Z M 3.84375 -0.53125 C 4.457031 -0.53125 4.921875 -0.695312 5.234375 -1.03125 C 5.554688 -1.363281 5.773438 -1.796875 5.890625 -2.328125 C 6.003906 -2.867188 6.0625 -3.515625 6.0625 -4.265625 C 6.0625 -5.023438 6.003906 -5.675781 5.890625 -6.21875 C 5.773438 -6.757812 5.554688 -7.195312 5.234375 -7.53125 C 4.921875 -7.863281 4.457031 -8.03125 3.84375 -8.03125 C 3.238281 -8.03125 2.773438 -7.863281 2.453125 -7.53125 C 2.128906 -7.195312 1.910156 -6.757812 1.796875 -6.21875 C 1.679688 -5.6875 1.625 -5.039062 1.625 -4.28125 C 1.625 -3.113281 1.773438 -2.195312 2.078125 -1.53125 C 2.390625 -0.863281 2.976562 -0.53125 3.84375 -0.53125 Z M 3.84375 -0.53125 "/></g></g></g><g fill="#c3c1bb" fill-opacity="1"><g transform="translate(245.480803, 281.304591)"><g><path d="M 0.46875 -0.46875 C 0.957031 -0.53125 1.347656 -0.648438 1.640625 -0.828125 L 1.640625 -7.75 C 1.304688 -7.914062 0.890625 -8.03125 0.390625 -8.09375 L 0.453125 -8.5625 L 3.75 -8.5625 C 4.71875 -8.5625 5.429688 -8.359375 5.890625 -7.953125 C 6.359375 -7.546875 6.59375 -6.957031 6.59375 -6.1875 C 6.59375 -5.289062 6.300781 -4.660156 5.71875 -4.296875 C 5.132812 -3.941406 4.289062 -3.765625 3.1875 -3.765625 L 2.765625 -3.765625 L 2.765625 -0.828125 C 3.046875 -0.660156 3.460938 -0.539062 4.015625 -0.46875 L 3.96875 0 L 0.390625 0 Z M 3.1875 -4.328125 C 3.90625 -4.328125 4.457031 -4.476562 4.84375 -4.78125 C 5.238281 -5.09375 5.4375 -5.566406 5.4375 -6.203125 C 5.4375 -7.410156 4.832031 -8.015625 3.625 -8.015625 C 3.351562 -8.015625 3.066406 -7.988281 2.765625 -7.9375 L 2.765625 -4.328125 Z M 3.1875 -4.328125 "/></g></g></g><g fill="#c3c1bb" fill-opacity="1"><g transform="translate(254.618177, 281.304591)"><g><path d="M 0.46875 -0.46875 C 0.6875 -0.5 0.910156 -0.546875 1.140625 -0.609375 C 1.378906 -0.671875 1.546875 -0.742188 1.640625 -0.828125 L 1.640625 -7.75 C 1.316406 -7.914062 0.898438 -8.03125 0.390625 -8.09375 L 0.453125 -8.5625 L 6.171875 -8.5625 L 6.265625 -6.609375 C 6.160156 -6.566406 6.039062 -6.546875 5.90625 -6.546875 C 5.863281 -6.546875 5.800781 -6.550781 5.71875 -6.5625 C 5.601562 -7.132812 5.425781 -7.570312 5.1875 -7.875 L 2.765625 -7.875 L 2.765625 -4.671875 L 4.21875 -4.734375 C 4.394531 -4.742188 4.539062 -4.820312 4.65625 -4.96875 C 4.769531 -5.125 4.863281 -5.332031 4.9375 -5.59375 L 5.34375 -5.59375 L 5.34375 -3.046875 L 4.9375 -3.046875 C 4.832031 -3.421875 4.734375 -3.671875 4.640625 -3.796875 C 4.546875 -3.921875 4.394531 -3.988281 4.1875 -4 L 2.765625 -4.078125 L 2.765625 -0.75 L 5.5 -0.75 C 5.757812 -1.101562 5.945312 -1.582031 6.0625 -2.1875 C 6.15625 -2.207031 6.234375 -2.21875 6.296875 -2.21875 C 6.335938 -2.21875 6.425781 -2.207031 6.5625 -2.1875 L 6.453125 0 L 0.390625 0 Z M 0.46875 -0.46875 "/></g></g></g><g fill="#c3c1bb" fill-opacity="1"><g transform="translate(263.845376, 281.304591)"><g><path d="M 0.46875 -0.46875 C 0.957031 -0.53125 1.347656 -0.648438 1.640625 -0.828125 L 1.640625 -7.75 C 1.335938 -7.914062 0.921875 -8.03125 0.390625 -8.09375 L 0.453125 -8.5625 L 3.75 -8.5625 C 5.707031 -8.5625 6.6875 -7.804688 6.6875 -6.296875 C 6.6875 -5.734375 6.539062 -5.273438 6.25 -4.921875 C 5.96875 -4.578125 5.519531 -4.332031 4.90625 -4.1875 C 5.070312 -4.082031 5.21875 -3.9375 5.34375 -3.75 C 5.46875 -3.570312 5.585938 -3.347656 5.703125 -3.078125 L 6.71875 -0.828125 C 6.976562 -0.648438 7.335938 -0.535156 7.796875 -0.484375 L 7.71875 0 L 5.78125 0 L 4.671875 -2.859375 C 4.523438 -3.222656 4.394531 -3.476562 4.28125 -3.625 C 4.175781 -3.769531 4.039062 -3.863281 3.875 -3.90625 C 3.707031 -3.957031 3.425781 -3.984375 3.03125 -3.984375 L 2.765625 -3.984375 L 2.765625 -0.828125 C 2.898438 -0.742188 3.0625 -0.671875 3.25 -0.609375 C 3.4375 -0.554688 3.691406 -0.507812 4.015625 -0.46875 L 3.953125 0 L 0.390625 0 Z M 3.171875 -4.578125 C 3.972656 -4.578125 4.566406 -4.71875 4.953125 -5 C 5.335938 -5.289062 5.53125 -5.734375 5.53125 -6.328125 C 5.53125 -6.890625 5.378906 -7.3125 5.078125 -7.59375 C 4.773438 -7.882812 4.328125 -8.03125 3.734375 -8.03125 C 3.441406 -8.03125 3.117188 -8 2.765625 -7.9375 L 2.765625 -4.578125 Z M 3.171875 -4.578125 "/></g></g></g></svg>